<svg id="svg" version="1.1" xmlns="http://www.w3.org/2000/svg" xmlns:xlink="http://www.w3.org/1999/xlink" width="400" height="109.29577464788733" viewBox="0, 0, 400,109.29577464788733"><g id="svgg"><path id="path0" d="M80.847 22.292 L 80.490 22.583 80.537 37.686 C 80.581 52.006,80.568 52.770,80.296 52.436 C 79.918 51.972,80.056 52.111,77.625 49.753 C 76.456 48.619,75.500 47.611,75.500 47.513 C 75.500 47.414,75.433 47.333,75.351 47.333 C 75.148 47.333,69.167 41.364,69.167 41.161 C 69.167 41.073,69.094 41.000,69.004 41.000 C 68.915 41.000,68.223 40.381,67.467 39.625 C 66.712 38.869,66.035 38.269,65.963 38.292 C 65.892 38.315,65.833 38.258,65.833 38.167 C 65.833 38.075,65.665 37.995,65.458 37.988 C 65.101 37.977,65.099 37.970,65.417 37.833 C 65.670 37.724,65.571 37.688,65.000 37.681 C 64.510 37.675,64.330 37.722,64.480 37.818 C 64.661 37.932,64.635 37.988,64.356 38.076 C 63.763 38.264,63.750 38.599,63.750 53.710 C 63.750 65.822,63.712 68.322,63.528 68.252 C 63.406 68.205,63.275 68.167,63.236 68.167 C 63.198 68.167,63.167 68.054,63.167 67.917 C 63.167 67.779,63.097 67.667,63.013 67.667 C 62.813 67.667,61.833 66.687,61.833 66.487 C 61.833 66.403,61.777 66.351,61.708 66.372 C 61.556 66.419,58.667 63.509,58.667 63.309 C 58.667 63.231,58.597 63.167,58.513 63.167 C 58.307 63.167,57.333 62.185,57.333 61.977 C 57.333 61.887,57.268 61.854,57.188 61.904 C 57.108 61.953,56.901 61.798,56.729 61.560 C 56.557 61.321,56.318 61.041,56.198 60.938 C 55.513 60.348,54.167 58.941,54.167 58.815 C 54.167 58.733,54.092 58.667,54.000 58.667 C 53.908 58.667,53.402 58.220,52.875 57.675 C 52.348 57.130,51.818 56.586,51.697 56.467 C 50.652 55.437,50.174 55.009,49.706 54.685 C 49.407 54.477,49.206 54.239,49.258 54.154 C 49.310 54.069,49.229 54.000,49.078 54.000 C 48.926 54.000,48.763 54.150,48.715 54.333 C 48.667 54.517,48.524 54.667,48.397 54.667 C 48.270 54.667,48.167 54.746,48.167 54.843 C 48.167 54.940,48.092 54.973,48.000 54.917 C 47.889 54.848,47.833 60.196,47.833 70.833 C 47.833 80.221,47.895 86.815,47.983 86.761 C 48.065 86.710,48.175 86.781,48.227 86.918 C 48.280 87.055,48.483 87.167,48.679 87.167 C 48.930 87.167,49.007 87.242,48.938 87.421 C 48.861 87.623,48.903 87.641,49.149 87.510 C 49.318 87.419,49.491 87.380,49.534 87.423 C 49.660 87.549,80.869 87.521,80.981 87.395 C 81.037 87.332,80.971 87.335,80.833 87.402 C 80.638 87.498,80.641 87.477,80.848 87.304 C 80.994 87.183,81.081 86.990,81.042 86.875 C 81.004 86.760,81.059 86.667,81.164 86.667 C 81.503 86.667,81.150 85.952,80.434 85.187 C 79.436 84.122,79.121 83.833,78.959 83.833 C 78.879 83.833,78.860 83.758,78.917 83.667 C 78.973 83.575,78.944 83.500,78.853 83.500 C 78.687 83.500,76.830 81.691,75.622 80.355 C 75.280 79.976,75.000 79.703,75.000 79.750 C 75.000 79.796,74.862 79.702,74.693 79.542 C 74.524 79.381,74.416 79.194,74.453 79.125 C 74.490 79.056,74.449 79.000,74.363 79.000 C 74.165 79.000,70.833 75.676,70.833 75.479 C 70.833 75.399,70.755 75.333,70.660 75.333 C 70.564 75.333,70.325 75.183,70.128 75.000 C 69.931 74.817,69.825 74.667,69.891 74.667 C 69.957 74.667,69.744 74.432,69.418 74.145 C 68.451 73.297,67.667 72.477,67.667 72.317 C 67.667 72.234,67.557 72.167,67.423 72.167 C 67.148 72.167,66.786 71.603,66.954 71.435 C 67.013 71.376,73.629 71.330,81.656 71.333 C 89.683 71.337,96.486 71.339,96.774 71.337 C 97.104 71.335,97.439 71.187,97.678 70.939 C 98.055 70.547,98.250 70.000,98.012 70.000 C 97.856 70.000,95.404 67.606,94.803 66.866 C 94.557 66.563,94.294 66.306,94.219 66.295 C 94.054 66.269,93.753 65.978,93.655 65.750 C 93.615 65.658,93.337 65.367,93.037 65.103 C 92.220 64.386,91.334 63.481,91.329 63.358 C 91.326 63.299,91.065 63.063,90.749 62.833 C 90.433 62.604,90.129 62.284,90.075 62.123 C 90.020 61.961,89.920 61.863,89.851 61.906 C 89.782 61.948,89.585 61.818,89.412 61.616 C 89.240 61.415,89.133 61.245,89.174 61.240 C 89.216 61.234,88.967 60.981,88.620 60.677 C 87.620 59.799,86.833 58.980,86.833 58.817 C 86.833 58.734,86.764 58.667,86.679 58.667 C 86.479 58.667,85.500 57.687,85.500 57.487 C 85.500 57.403,85.442 57.352,85.371 57.375 C 85.300 57.398,84.883 57.042,84.443 56.583 L 83.644 55.750 98.630 55.667 C 115.084 55.575,114.167 55.641,114.167 54.556 C 114.167 54.007,113.559 52.552,113.398 52.713 C 113.354 52.757,112.722 52.183,111.993 51.438 C 109.705 49.100,109.602 49.000,109.478 49.000 C 109.411 49.000,109.308 48.849,109.249 48.664 C 109.191 48.480,109.083 48.366,109.009 48.411 C 108.935 48.457,108.735 48.298,108.563 48.060 C 108.391 47.821,108.157 47.541,108.043 47.438 C 107.792 47.210,103.818 43.260,103.583 43.005 C 103.492 42.906,102.460 41.890,101.292 40.748 C 100.123 39.607,99.167 38.596,99.167 38.503 C 99.167 38.410,99.095 38.333,99.006 38.333 C 98.801 38.333,92.333 31.859,92.333 31.654 C 92.333 31.569,92.255 31.500,92.159 31.500 C 92.063 31.500,91.488 30.994,90.880 30.375 C 90.272 29.756,89.712 29.269,89.637 29.292 C 89.562 29.315,89.500 29.252,89.500 29.153 C 89.500 28.917,85.319 24.737,85.138 24.792 C 85.062 24.815,85.000 24.757,85.000 24.663 C 85.000 24.440,83.317 22.706,82.717 22.310 C 82.128 21.922,81.309 21.913,80.847 22.292 M106.333 22.941 C 106.333 23.019,105.715 23.089,104.958 23.096 C 103.180 23.113,102.207 23.381,102.136 23.873 C 102.097 24.146,101.915 24.278,101.421 24.395 C 100.893 24.519,100.070 25.000,100.386 25.000 C 100.427 25.000,100.211 25.274,99.904 25.609 C 99.597 25.944,99.383 26.280,99.430 26.354 C 99.476 26.429,99.338 26.534,99.123 26.588 C 98.872 26.651,98.727 26.816,98.715 27.051 C 98.644 28.454,98.606 28.620,98.353 28.602 C 98.209 28.592,98.090 28.673,98.087 28.783 C 98.085 28.893,97.990 29.077,97.875 29.192 C 97.324 29.743,97.757 33.141,98.410 33.391 C 98.586 33.459,98.667 33.715,98.667 34.208 C 98.667 34.603,98.777 35.083,98.911 35.274 C 99.045 35.466,99.101 35.676,99.036 35.742 C 98.970 35.808,99.029 35.836,99.167 35.806 C 99.305 35.775,99.396 35.849,99.371 35.971 C 99.346 36.092,99.398 36.146,99.488 36.091 C 99.577 36.036,99.736 36.152,99.842 36.349 C 99.997 36.638,99.991 36.681,99.811 36.570 C 99.689 36.494,99.763 36.654,99.975 36.925 C 100.216 37.234,100.618 37.481,101.055 37.591 C 101.565 37.718,101.816 37.895,102.000 38.257 C 102.258 38.766,102.254 38.765,103.958 38.817 C 104.300 38.827,104.500 38.918,104.500 39.063 C 104.500 39.445,105.395 39.694,106.563 39.637 C 107.170 39.607,107.666 39.527,107.666 39.458 C 107.667 39.390,107.736 39.352,107.822 39.375 C 107.907 39.398,108.080 39.278,108.207 39.108 C 108.388 38.866,108.676 38.795,109.552 38.779 C 110.165 38.768,110.667 38.696,110.667 38.620 C 110.667 38.543,110.728 38.518,110.803 38.565 C 110.878 38.611,110.907 38.428,110.868 38.158 C 110.804 37.726,110.846 37.667,111.211 37.667 C 111.662 37.667,112.002 37.357,112.071 36.883 C 112.095 36.718,112.258 36.558,112.432 36.528 C 112.849 36.455,113.167 36.032,113.167 35.551 C 113.167 35.279,113.263 35.167,113.496 35.167 C 114.351 35.167,114.773 28.585,113.988 27.483 C 113.817 27.243,113.717 27.005,113.766 26.956 C 113.815 26.907,113.726 26.878,113.567 26.892 C 113.369 26.909,113.232 26.735,113.129 26.333 C 112.961 25.682,112.587 25.310,112.234 25.446 C 112.025 25.526,111.910 25.225,111.982 24.787 C 111.994 24.716,111.890 24.614,111.753 24.561 C 111.615 24.508,111.551 24.386,111.610 24.290 C 111.680 24.177,111.582 24.150,111.334 24.215 C 111.045 24.290,110.834 24.191,110.480 23.812 C 110.221 23.535,109.932 23.356,109.838 23.414 C 109.744 23.472,109.667 23.453,109.667 23.371 C 109.667 23.205,109.700 23.211,108.083 23.115 C 107.442 23.077,106.785 22.990,106.625 22.922 C 106.465 22.854,106.333 22.862,106.333 22.941 " stroke="none" fill="#fc342c" fill-rule="evenodd"></path><path id="path1" d="M136.833 19.884 C 136.512 19.994,136.176 20.252,136.085 20.458 C 135.930 20.812,135.824 20.833,134.210 20.833 C 132.635 20.833,132.500 20.859,132.500 21.153 C 132.500 21.845,132.322 22.000,131.524 22.003 C 130.591 22.006,130.395 22.114,130.245 22.710 C 130.161 23.045,130.027 23.167,129.742 23.167 C 129.243 23.167,129.162 23.313,129.048 24.421 C 128.959 25.282,128.928 25.333,128.496 25.333 C 127.969 25.333,127.839 25.636,127.836 26.875 C 127.834 27.449,127.768 27.667,127.595 27.667 C 126.885 27.667,126.833 27.987,126.833 32.437 L 126.833 36.683 126.408 37.050 C 125.523 37.812,125.559 39.675,126.460 39.803 L 126.833 39.857 126.833 44.332 L 126.833 48.807 127.333 48.917 C 127.810 49.021,127.833 49.067,127.835 49.888 C 127.839 51.475,127.998 52.017,128.515 52.197 C 128.873 52.322,128.993 52.481,129.032 52.888 C 129.077 53.350,129.152 53.423,129.625 53.469 C 130.101 53.515,130.167 53.580,130.167 54.011 C 130.167 54.459,130.216 54.500,130.750 54.500 C 131.306 54.500,131.333 54.528,131.333 55.083 C 131.333 55.619,131.374 55.667,131.829 55.667 C 132.247 55.667,132.345 55.750,132.464 56.208 L 132.604 56.750 134.208 56.798 C 135.806 56.845,135.813 56.847,135.864 57.288 C 136.004 58.471,146.667 58.265,146.667 57.079 C 146.667 56.874,147.052 56.833,148.975 56.833 C 152.763 56.833,152.711 56.900,152.634 52.167 L 152.583 49.083 145.302 49.040 L 138.021 48.997 137.969 48.457 C 137.923 47.982,137.851 47.910,137.375 47.864 C 136.898 47.818,136.833 47.754,136.833 47.319 C 136.833 46.903,136.754 46.809,136.333 46.725 L 135.833 46.625 135.831 45.104 C 135.829 42.811,135.724 42.372,135.146 42.246 L 134.667 42.140 134.667 38.659 C 134.667 35.430,134.689 35.166,134.978 35.012 C 135.551 34.705,135.833 33.800,135.833 32.266 C 135.833 30.998,135.868 30.833,136.133 30.833 C 136.561 30.833,136.833 30.504,136.833 29.986 C 136.833 29.674,136.938 29.512,137.179 29.448 C 137.369 29.399,137.565 29.203,137.615 29.014 C 137.704 28.674,137.786 28.670,145.144 28.627 L 152.583 28.583 152.583 25.333 L 152.583 22.083 151.752 22.000 C 151.040 21.929,150.873 21.840,150.586 21.381 L 150.250 20.846 146.972 20.840 L 143.693 20.833 143.588 20.354 C 143.501 19.958,143.375 19.856,142.866 19.772 C 141.786 19.594,137.450 19.674,136.833 19.884 M231.000 19.803 C 230.712 19.891,230.567 20.069,230.531 20.382 L 230.478 20.833 228.281 20.850 C 225.728 20.869,225.325 20.951,225.050 21.507 C 224.914 21.781,224.664 21.944,224.298 22.000 C 223.825 22.072,223.743 22.156,223.699 22.615 C 223.654 23.078,223.578 23.154,223.115 23.199 C 222.586 23.250,222.583 23.254,222.534 24.292 C 222.485 25.310,222.474 25.333,222.016 25.333 C 221.407 25.333,221.336 26.007,221.335 31.850 C 221.333 37.798,221.417 38.658,222.008 38.777 C 222.422 38.859,222.477 38.956,222.580 39.782 C 222.685 40.622,222.740 40.714,223.264 40.933 C 223.644 41.092,223.833 41.282,223.833 41.506 C 223.833 41.910,224.420 42.167,225.344 42.167 C 225.956 42.167,226.000 42.199,226.000 42.649 C 226.000 43.337,225.973 43.333,231.831 43.333 L 237.134 43.333 237.308 43.833 C 237.441 44.213,237.585 44.333,237.908 44.333 L 238.333 44.333 238.333 46.667 L 238.333 49.000 230.417 49.000 L 222.500 49.000 222.500 52.730 C 222.500 57.225,222.192 56.812,225.588 56.871 L 228.235 56.917 228.333 57.332 C 228.474 57.928,228.980 57.979,234.861 57.990 C 239.833 58.000,240.500 57.959,240.500 57.649 C 240.500 57.147,241.188 56.846,242.445 56.799 L 243.739 56.750 243.893 56.208 C 244.022 55.760,244.130 55.667,244.524 55.667 C 244.957 55.667,245.000 55.614,245.000 55.083 C 245.000 54.528,245.028 54.500,245.583 54.500 L 246.167 54.500 246.167 53.427 L 246.167 52.354 246.708 52.302 L 247.250 52.250 247.250 46.167 L 247.250 40.083 246.708 40.031 L 246.167 39.979 246.167 38.924 C 246.167 37.825,246.060 37.667,245.320 37.667 C 245.077 37.667,245.000 37.549,245.000 37.178 C 245.000 36.768,244.926 36.680,244.542 36.636 C 244.188 36.595,244.047 36.460,243.924 36.042 L 243.764 35.500 242.132 35.500 C 240.540 35.500,240.500 35.491,240.500 35.117 C 240.500 34.351,240.380 34.333,235.300 34.333 L 230.500 34.333 230.500 31.500 L 230.500 28.667 238.333 28.667 L 246.167 28.667 246.167 25.333 L 246.167 22.000 245.594 22.000 C 245.070 22.000,245.017 21.954,244.969 21.458 L 244.917 20.917 240.458 20.872 C 236.238 20.830,236.000 20.811,236.000 20.518 C 236.000 19.859,232.477 19.355,231.000 19.803 M169.125 20.180 C 168.965 20.273,168.833 20.457,168.833 20.588 C 168.833 20.786,168.242 20.834,165.375 20.872 L 161.917 20.917 161.757 21.458 C 161.616 21.937,161.529 22.000,161.007 22.002 C 160.003 22.006,159.658 22.169,159.554 22.688 C 159.476 23.077,159.372 23.167,158.997 23.167 C 158.530 23.167,158.333 23.416,158.333 24.006 C 158.333 24.177,158.071 24.572,157.750 24.884 C 157.297 25.323,157.167 25.584,157.167 26.047 C 157.167 26.531,157.099 26.654,156.806 26.697 C 156.276 26.775,156.027 27.659,156.013 29.522 C 156.001 30.979,155.969 31.136,155.669 31.214 C 155.039 31.379,154.995 31.952,155.040 39.390 L 155.083 46.583 155.542 46.636 L 156.000 46.689 156.000 48.407 C 156.000 50.805,156.089 51.167,156.680 51.167 C 157.141 51.167,157.152 51.188,157.200 52.208 C 157.249 53.224,157.263 53.254,157.792 53.409 C 158.235 53.540,158.333 53.653,158.333 54.034 C 158.333 54.455,158.389 54.500,158.917 54.500 C 159.472 54.500,159.500 54.528,159.500 55.083 C 159.500 55.639,159.528 55.667,160.083 55.667 C 160.543 55.667,160.667 55.733,160.667 55.980 C 160.667 56.600,161.126 56.747,163.243 56.808 C 165.128 56.862,165.279 56.891,165.426 57.225 C 165.954 58.427,174.833 58.301,174.833 57.091 C 174.833 56.874,175.121 56.833,176.649 56.833 C 178.564 56.833,178.667 56.791,178.667 55.994 C 178.667 55.728,178.820 55.675,179.708 55.633 C 180.750 55.583,180.750 55.583,180.802 55.042 C 180.848 54.570,180.916 54.500,181.326 54.500 C 181.803 54.500,182.000 54.255,182.000 53.664 C 182.000 53.495,182.146 53.309,182.325 53.252 C 182.741 53.121,183.167 52.272,183.167 51.575 C 183.167 51.205,183.324 50.867,183.667 50.500 L 184.167 49.965 184.167 47.744 C 184.167 45.575,184.175 45.522,184.537 45.470 C 185.275 45.364,185.328 44.937,185.331 39.063 C 185.334 32.762,185.310 32.525,184.641 32.273 L 184.167 32.094 184.167 29.880 L 184.167 27.667 183.667 27.667 C 183.173 27.667,183.167 27.656,183.167 26.764 C 183.167 25.555,183.060 25.333,182.482 25.333 C 182.039 25.333,181.999 25.283,181.983 24.708 C 181.955 23.645,181.778 23.259,181.278 23.167 C 181.008 23.118,180.736 22.912,180.616 22.667 C 180.456 22.341,180.220 22.216,179.536 22.094 C 178.750 21.954,178.647 21.886,178.528 21.427 L 178.396 20.917 174.781 20.872 C 172.438 20.843,171.167 20.766,171.167 20.655 C 171.167 20.223,169.654 19.872,169.125 20.180 M188.744 21.042 C 188.700 21.156,188.683 29.237,188.707 39.000 L 188.750 56.750 193.208 56.794 L 197.667 56.839 197.695 47.711 C 197.710 42.691,197.752 38.867,197.788 39.215 C 197.844 39.752,197.924 39.860,198.324 39.940 C 198.759 40.027,198.802 40.107,198.906 41.023 C 199.010 41.945,199.050 42.018,199.500 42.108 C 199.893 42.187,199.991 42.301,200.033 42.727 C 200.077 43.181,200.154 43.257,200.617 43.302 C 201.149 43.353,201.151 43.358,201.201 44.385 C 201.250 45.415,201.251 45.417,201.792 45.469 C 202.285 45.516,202.333 45.571,202.333 46.083 C 202.333 46.874,202.613 47.517,203.002 47.619 C 203.229 47.678,203.333 47.847,203.333 48.153 C 203.333 48.701,203.610 49.000,204.117 49.000 C 204.461 49.000,204.500 49.078,204.500 49.761 C 204.500 50.733,204.733 51.167,205.256 51.167 C 205.614 51.167,205.667 51.241,205.667 51.750 C 205.667 52.306,205.694 52.333,206.250 52.333 L 206.833 52.333 206.833 53.417 C 206.833 54.498,206.834 54.500,207.310 54.500 C 207.760 54.500,207.793 54.548,207.889 55.365 C 208.059 56.796,207.862 56.743,213.256 56.801 L 218.000 56.852 218.000 38.843 L 218.000 20.833 213.500 20.833 L 209.000 20.833 209.000 29.883 L 209.000 38.933 208.424 38.866 L 207.848 38.799 207.799 37.774 C 207.752 36.795,207.730 36.748,207.292 36.697 C 206.916 36.654,206.833 36.562,206.833 36.188 C 206.833 35.899,206.620 35.498,206.250 35.095 C 205.888 34.699,205.667 34.289,205.667 34.012 C 205.667 33.465,205.390 33.167,204.883 33.167 C 204.539 33.167,204.500 33.089,204.500 32.406 C 204.500 31.434,204.267 31.000,203.744 31.000 C 203.386 31.000,203.333 30.926,203.333 30.417 C 203.333 29.880,203.294 29.833,202.833 29.833 C 202.346 29.833,202.333 29.813,202.333 29.014 C 202.333 27.903,202.217 27.667,201.670 27.667 C 201.230 27.667,201.205 27.621,201.095 26.655 C 200.991 25.732,200.938 25.628,200.500 25.475 C 200.126 25.345,200.008 25.190,199.968 24.779 C 199.923 24.319,199.847 24.243,199.383 24.198 C 198.851 24.147,198.849 24.142,198.799 23.115 C 198.750 22.085,198.749 22.083,198.208 22.031 C 197.712 21.983,197.667 21.930,197.667 21.406 L 197.667 20.833 193.245 20.833 C 189.861 20.833,188.804 20.882,188.744 21.042 M250.768 21.097 C 250.447 21.932,250.669 45.017,251.003 45.673 C 251.189 46.036,251.449 46.333,251.582 46.333 C 251.780 46.333,251.833 46.764,251.870 48.708 L 251.917 51.083 252.451 51.135 L 252.985 51.187 253.034 52.302 L 253.083 53.417 253.625 53.469 C 254.101 53.515,254.167 53.580,254.167 54.011 C 254.167 54.443,254.225 54.500,254.667 54.500 C 255.127 54.500,255.167 54.546,255.167 55.083 C 255.167 55.637,255.196 55.667,255.739 55.667 C 256.264 55.667,256.317 55.712,256.364 56.208 L 256.417 56.750 258.125 56.797 C 259.656 56.840,259.833 56.877,259.833 57.152 C 259.833 57.860,260.162 57.914,264.817 57.969 C 269.623 58.026,270.435 57.921,270.748 57.208 C 270.900 56.861,271.019 56.833,272.361 56.833 C 273.899 56.833,274.333 56.647,274.333 55.988 C 274.333 55.732,274.452 55.667,274.917 55.667 C 275.472 55.667,275.500 55.639,275.500 55.083 C 275.500 54.528,275.528 54.500,276.083 54.500 C 276.615 54.500,276.667 54.457,276.667 54.021 C 276.667 53.622,276.750 53.525,277.167 53.442 C 277.660 53.343,277.667 53.328,277.667 52.265 L 277.667 51.188 278.208 51.136 L 278.750 51.083 278.796 48.895 L 278.843 46.706 279.329 46.609 C 280.030 46.469,280.017 46.757,279.964 33.167 L 279.917 20.917 275.458 20.872 L 271.000 20.828 271.000 32.831 C 271.000 43.464,270.971 44.833,270.746 44.833 C 270.607 44.833,270.407 45.021,270.303 45.250 C 270.199 45.479,270.050 45.667,269.973 45.667 C 269.896 45.667,269.833 46.154,269.833 46.750 L 269.833 47.833 269.351 47.833 C 268.861 47.833,268.667 48.074,268.667 48.680 C 268.667 48.985,268.508 49.000,265.344 49.000 L 262.021 49.000 261.969 48.458 C 261.923 47.982,261.851 47.910,261.375 47.864 L 260.833 47.812 260.833 46.739 L 260.833 45.667 260.250 45.667 L 259.667 45.667 259.667 33.250 L 259.667 20.833 255.268 20.833 C 251.410 20.833,250.857 20.866,250.768 21.097 M283.434 21.097 C 283.259 21.554,283.319 51.440,283.496 51.906 C 283.611 52.209,283.781 52.333,284.079 52.333 C 284.486 52.333,284.500 52.369,284.500 53.417 L 284.500 54.500 285.083 54.500 C 285.639 54.500,285.667 54.528,285.667 55.083 C 285.667 55.639,285.694 55.667,286.250 55.667 C 286.806 55.667,286.833 55.694,286.833 56.250 L 286.833 56.833 296.917 56.833 L 307.000 56.833 307.000 52.917 L 307.000 49.000 299.667 49.000 L 292.333 49.000 292.333 34.917 L 292.333 20.833 287.934 20.833 C 284.077 20.833,283.523 20.866,283.434 21.097 M309.333 24.750 L 309.333 28.667 313.833 28.667 L 318.333 28.667 318.333 42.750 L 318.333 56.833 322.833 56.833 L 327.333 56.833 327.333 42.750 L 327.333 28.667 332.125 28.664 C 334.852 28.663,337.024 28.593,337.167 28.504 C 337.376 28.371,337.417 27.765,337.417 24.750 C 337.417 21.736,337.376 21.129,337.167 20.997 C 337.014 20.900,331.532 20.837,323.125 20.836 L 309.333 20.833 309.333 24.750 M349.944 20.944 C 349.883 21.006,349.833 21.526,349.833 22.100 C 349.833 22.998,349.787 23.159,349.500 23.250 C 349.005 23.407,348.816 23.891,348.712 25.265 C 348.661 25.944,348.569 26.500,348.508 26.500 C 347.974 26.500,347.747 27.026,347.667 28.444 C 347.588 29.826,347.560 29.920,347.199 29.971 C 346.683 30.044,346.500 30.597,346.500 32.083 C 346.500 33.298,346.495 33.312,346.042 33.364 C 345.505 33.426,345.384 33.806,345.353 35.521 C 345.334 36.596,345.321 36.627,344.857 36.720 C 344.336 36.825,344.167 37.429,344.167 39.190 C 344.167 39.859,344.114 40.000,343.867 40.000 C 343.299 40.000,343.167 40.354,343.167 41.867 C 343.167 43.151,343.130 43.334,342.875 43.336 C 342.211 43.342,342.086 43.609,342.000 45.202 C 341.918 46.728,341.910 46.751,341.475 46.801 C 340.932 46.864,340.839 47.165,340.836 48.864 C 340.833 50.136,340.830 50.145,340.376 50.197 C 339.838 50.259,339.717 50.640,339.686 52.364 C 339.667 53.450,339.655 53.479,339.208 53.531 L 338.750 53.583 338.702 55.208 L 338.655 56.833 343.107 56.833 L 347.560 56.833 348.113 56.229 C 348.642 55.652,348.667 55.566,348.667 54.312 C 348.667 52.957,348.841 52.558,349.554 52.284 C 349.776 52.199,349.833 51.953,349.833 51.089 L 349.833 50.000 354.909 50.000 L 359.985 50.000 360.034 51.125 L 360.083 52.250 360.625 52.302 L 361.167 52.354 361.167 54.011 C 361.167 55.275,361.219 55.667,361.388 55.667 C 361.657 55.667,362.333 56.362,362.333 56.638 C 362.333 56.791,363.407 56.828,366.792 56.794 L 371.250 56.750 371.298 55.833 C 371.377 54.339,371.157 53.593,370.618 53.531 C 370.167 53.478,370.167 53.475,370.167 52.086 C 370.167 50.370,370.095 50.167,369.488 50.167 L 369.012 50.167 368.964 48.542 L 368.917 46.917 368.381 46.759 L 367.845 46.601 367.797 45.009 L 367.750 43.417 367.292 43.364 C 366.836 43.312,366.833 43.303,366.831 42.031 C 366.828 40.271,366.737 40.000,366.153 40.000 L 365.679 40.000 365.631 38.375 L 365.583 36.750 365.042 36.698 L 364.500 36.646 364.500 35.007 C 364.500 33.280,364.448 33.167,363.653 33.167 C 363.359 33.167,363.333 33.032,363.333 31.500 C 363.333 30.215,363.282 29.833,363.109 29.833 C 362.578 29.833,362.333 29.247,362.333 27.978 C 362.333 26.786,362.308 26.704,361.750 26.095 C 361.210 25.506,361.167 25.378,361.167 24.390 C 361.167 23.087,360.825 22.167,360.342 22.167 C 360.054 22.167,360.000 22.061,360.000 21.500 L 360.000 20.833 355.028 20.833 C 352.293 20.833,350.006 20.883,349.944 20.944 M173.106 29.141 C 173.246 29.513,173.421 29.637,173.913 29.717 C 174.899 29.877,175.167 30.225,175.167 31.348 C 175.167 32.651,175.378 33.167,175.913 33.167 L 176.333 33.167 176.333 38.833 L 176.333 44.500 175.913 44.500 C 175.404 44.500,175.167 45.010,175.167 46.102 C 175.167 46.893,174.688 47.550,173.625 48.219 C 173.373 48.378,173.167 48.618,173.167 48.754 C 173.167 48.963,172.642 49.000,169.667 49.000 L 166.167 49.000 166.167 48.417 C 166.167 47.863,166.138 47.833,165.591 47.833 L 165.016 47.833 164.966 46.792 C 164.919 45.793,164.898 45.748,164.458 45.697 L 164.000 45.645 164.000 38.822 L 164.000 32.000 164.500 32.000 L 165.000 32.000 165.000 30.917 L 165.000 29.833 165.583 29.833 C 166.139 29.833,166.167 29.806,166.167 29.250 L 166.167 28.667 169.547 28.667 L 172.927 28.667 173.106 29.141 M355.718 37.458 C 355.792 37.573,356.033 37.667,356.254 37.667 C 356.646 37.667,356.656 37.700,356.702 39.290 L 356.750 40.914 357.250 41.021 C 357.525 41.079,356.719 41.136,355.458 41.147 L 353.167 41.167 353.167 40.034 L 353.167 38.902 353.708 38.743 L 354.250 38.583 354.333 37.000 C 354.416 35.420,354.418 35.417,354.875 35.364 C 355.127 35.335,355.345 35.222,355.360 35.114 C 355.375 35.005,355.431 35.442,355.485 36.083 C 355.539 36.725,355.644 37.344,355.718 37.458 M129.000 78.822 L 129.000 80.478 128.544 80.531 C 127.961 80.598,127.856 81.124,127.843 84.031 L 127.833 86.145 127.375 86.197 L 126.917 86.250 126.871 89.031 L 126.825 91.813 126.288 91.865 L 125.750 91.917 125.703 94.042 L 125.657 96.167 127.912 96.167 L 130.167 96.167 130.167 95.595 C 130.167 95.161,130.251 94.996,130.515 94.912 C 131.122 94.719,131.333 93.861,131.333 91.589 L 131.333 89.500 135.672 89.500 C 141.559 89.500,141.411 89.579,141.301 86.500 L 141.250 85.083 136.792 85.039 L 132.333 84.995 132.333 84.367 C 132.333 83.825,132.400 83.714,132.825 83.554 C 133.254 83.392,133.332 83.261,133.428 82.536 L 133.538 81.703 138.345 81.642 C 144.062 81.570,143.564 81.803,143.643 79.158 L 143.702 77.167 136.351 77.167 L 129.000 77.167 129.000 78.822 M153.550 77.335 C 152.845 77.619,152.667 78.302,152.667 80.722 C 152.667 82.798,152.643 82.967,152.343 83.046 C 151.749 83.201,151.500 84.199,151.500 86.419 C 151.500 88.462,151.499 88.465,151.000 89.000 L 150.500 89.535 150.500 91.895 C 150.500 94.182,150.488 94.259,150.125 94.419 C 149.531 94.680,149.543 95.389,150.148 95.820 C 150.607 96.147,150.828 96.173,152.783 96.130 L 154.917 96.083 154.963 93.886 L 155.010 91.688 155.463 91.636 L 155.917 91.583 155.962 88.898 L 156.008 86.213 156.546 86.059 L 157.083 85.905 157.129 83.236 L 157.175 80.567 157.712 80.408 L 158.250 80.250 158.298 78.708 L 158.346 77.167 156.131 77.177 C 154.913 77.183,153.752 77.254,153.550 77.335 M166.223 77.426 C 166.066 77.836,166.260 81.160,166.453 81.353 C 166.550 81.450,167.782 81.569,169.237 81.622 L 171.847 81.717 171.799 82.810 C 171.754 83.821,171.719 83.910,171.334 84.000 C 170.790 84.128,170.711 84.531,170.686 87.288 L 170.667 89.494 170.249 89.599 C 170.003 89.660,169.801 89.851,169.759 90.060 C 169.617 90.765,169.493 95.095,169.599 95.625 L 169.708 96.167 171.938 96.167 L 174.167 96.167 174.167 94.537 L 174.167 92.906 174.667 92.718 L 175.167 92.529 175.167 89.848 L 175.167 87.167 175.577 87.167 C 176.220 87.167,176.333 86.710,176.333 84.118 L 176.333 81.713 179.510 81.630 C 183.309 81.530,183.046 81.709,183.136 79.167 L 183.208 77.167 174.765 77.167 C 167.279 77.167,166.312 77.196,166.223 77.426 " stroke="none" fill="#040404" fill-rule="evenodd"></path><path id="path2" d="" stroke="none" fill="#1001c18" fill-rule="evenodd"></path><path id="path3" d="" stroke="none" fill="#441c18" fill-rule="evenodd"></path><path id="path4" d="" stroke="none" fill="#042018" fill-rule="evenodd"></path></g></svg>