<svg id="svg" version="1.1" xmlns="http://www.w3.org/2000/svg" xmlns:xlink="http://www.w3.org/1999/xlink" width="400" height="400" viewBox="0, 0, 400,400"><g id="svgg"><path id="path0" d="M121.449 178.616 C 121.312 178.973,121.200 184.063,121.200 189.927 L 121.200 200.588 116.044 195.444 C 113.063 192.470,110.700 190.414,110.444 190.573 C 110.200 190.724,110.000 190.657,110.000 190.424 C 110.000 190.191,109.820 190.000,109.600 190.000 C 109.343 190.000,109.200 193.867,109.200 200.800 C 109.200 208.762,109.323 211.600,109.667 211.600 C 109.923 211.600,110.007 211.726,109.853 211.881 C 109.698 212.035,107.168 209.762,104.230 206.830 C 101.138 203.745,98.701 201.614,98.444 201.773 C 97.727 202.216,97.832 223.363,98.554 223.962 C 99.150 224.457,120.482 224.584,120.971 224.096 C 121.112 223.955,118.839 221.445,115.920 218.519 L 110.611 213.200 121.482 213.200 C 129.013 213.200,132.437 213.064,132.627 212.756 C 132.786 212.499,130.655 210.062,127.570 206.970 C 124.638 204.032,122.365 201.502,122.519 201.347 C 122.674 201.193,122.800 201.277,122.800 201.533 C 122.800 201.877,125.638 202.000,133.600 202.000 C 140.533 202.000,144.400 201.857,144.400 201.600 C 144.400 201.380,144.209 201.200,143.976 201.200 C 143.743 201.200,143.676 201.001,143.826 200.759 C 144.041 200.410,123.013 178.622,121.949 178.091 C 121.811 178.022,121.586 178.259,121.449 178.616 M136.486 180.013 C 135.543 180.666,134.598 181.200,134.386 181.200 C 134.174 181.200,134.000 181.380,134.000 181.600 C 134.000 181.820,134.163 182.000,134.363 182.000 C 134.562 182.000,134.631 182.360,134.516 182.800 C 134.401 183.240,134.058 183.600,133.753 183.600 C 133.449 183.600,133.200 183.960,133.200 184.400 C 133.200 184.870,133.467 185.200,133.847 185.200 C 134.332 185.200,134.442 185.467,134.289 186.271 C 134.171 186.884,134.310 187.567,134.613 187.871 C 135.340 188.597,135.737 188.535,135.434 187.743 C 135.220 187.187,135.277 187.166,135.810 187.608 C 136.280 187.998,136.316 188.205,135.954 188.428 C 135.585 188.657,135.604 188.859,136.035 189.285 C 136.638 189.881,139.848 190.007,140.700 189.469 C 140.984 189.289,141.200 189.336,141.200 189.576 C 141.200 189.809,141.572 190.000,142.027 190.000 C 142.693 190.000,142.805 189.825,142.601 189.100 C 142.416 188.445,142.454 188.354,142.737 188.765 C 143.066 189.240,143.244 189.214,143.860 188.597 C 144.352 188.105,144.437 187.812,144.119 187.706 C 143.858 187.619,143.740 187.301,143.856 186.999 C 143.971 186.698,144.290 186.536,144.563 186.641 C 144.924 186.780,145.059 186.174,145.059 184.416 C 145.059 182.626,144.915 182.000,144.506 182.000 C 144.202 182.000,144.044 181.852,144.156 181.671 C 144.358 181.345,142.856 179.820,142.320 179.807 C 142.166 179.803,141.815 179.575,141.540 179.300 C 140.653 178.413,138.320 178.742,136.486 180.013 " stroke="none" fill="#fc342c" fill-rule="evenodd"></path><path id="path1" d="M160.600 176.800 C 160.464 177.020,159.823 177.200,159.176 177.200 C 158.529 177.200,158.000 177.336,158.000 177.502 C 158.000 177.669,157.460 178.044,156.800 178.336 C 156.069 178.659,155.600 179.167,155.600 179.634 C 155.600 180.055,155.420 180.400,155.200 180.400 C 154.980 180.400,154.800 180.749,154.800 181.176 C 154.800 181.603,154.620 182.064,154.400 182.200 C 154.180 182.336,154.000 183.789,154.000 185.429 C 154.000 187.088,153.783 188.759,153.510 189.195 C 153.123 189.815,153.123 190.083,153.510 190.470 C 153.813 190.773,154.000 192.151,154.000 194.080 C 154.000 195.893,154.168 197.200,154.400 197.200 C 154.620 197.200,154.800 197.655,154.800 198.211 C 154.800 199.589,158.011 202.800,159.389 202.800 C 159.945 202.800,160.400 202.980,160.400 203.200 C 160.400 203.713,167.303 203.735,167.820 203.224 C 168.029 203.017,169.100 202.792,170.200 202.724 L 172.200 202.600 172.318 199.900 L 172.437 197.200 167.400 197.200 C 161.565 197.200,160.400 196.637,160.400 193.818 C 160.400 193.038,160.220 192.400,160.000 192.400 C 159.775 192.400,159.600 191.275,159.600 189.824 C 159.600 188.407,159.780 187.136,160.000 187.000 C 160.220 186.864,160.400 186.307,160.400 185.762 C 160.400 183.143,161.169 182.800,167.046 182.800 L 172.400 182.800 172.397 180.500 C 172.393 177.767,171.659 177.200,168.120 177.200 C 166.954 177.200,166.000 177.020,166.000 176.800 C 166.000 176.575,164.875 176.400,163.424 176.400 C 162.007 176.400,160.736 176.580,160.600 176.800 M227.600 176.800 C 227.600 177.020,226.835 177.200,225.900 177.200 C 224.052 177.201,222.000 178.540,222.000 179.747 C 222.000 180.106,221.820 180.400,221.600 180.400 C 221.356 180.400,221.200 182.267,221.200 185.200 C 221.200 187.840,221.337 190.000,221.505 190.000 C 221.673 190.000,221.988 190.405,222.205 190.900 C 222.422 191.395,223.005 191.978,223.500 192.195 C 223.995 192.412,224.400 192.727,224.400 192.895 C 224.400 193.063,226.123 193.200,228.229 193.200 C 232.587 193.200,233.200 193.517,233.200 195.771 L 233.200 197.200 227.600 197.200 L 222.000 197.200 222.000 200.000 L 222.000 202.800 224.000 202.800 C 225.100 202.800,226.000 202.980,226.000 203.200 C 226.000 203.442,227.725 203.600,230.376 203.600 C 232.863 203.600,234.860 203.427,235.000 203.200 C 235.136 202.980,235.605 202.800,236.042 202.800 C 236.983 202.800,238.800 201.099,238.800 200.218 C 238.800 199.878,238.980 199.600,239.200 199.600 C 239.442 199.600,239.600 197.867,239.600 195.200 C 239.600 192.533,239.442 190.800,239.200 190.800 C 238.980 190.800,238.800 190.522,238.800 190.182 C 238.800 189.210,236.941 187.600,235.818 187.600 C 235.258 187.600,234.800 187.420,234.800 187.200 C 234.800 186.963,233.333 186.800,231.200 186.800 L 227.600 186.800 227.600 184.800 L 227.600 182.800 233.200 182.800 L 238.800 182.800 238.800 180.571 C 238.800 177.545,238.373 177.200,234.629 177.200 C 232.876 177.200,231.600 177.031,231.600 176.800 C 231.600 176.580,230.700 176.400,229.600 176.400 C 228.500 176.400,227.600 176.580,227.600 176.800 M181.610 177.121 C 180.186 177.188,178.926 177.368,178.810 177.522 C 178.695 177.676,178.105 178.056,177.500 178.368 C 176.895 178.680,176.396 179.130,176.391 179.368 C 176.386 179.605,176.030 180.250,175.600 180.800 C 175.170 181.350,174.814 182.374,174.809 183.076 C 174.804 183.778,174.620 184.464,174.400 184.600 C 174.165 184.745,174.000 187.071,174.000 190.224 C 174.000 193.541,174.153 195.600,174.400 195.600 C 174.620 195.600,174.800 196.320,174.800 197.200 C 174.800 198.080,174.980 198.800,175.200 198.800 C 175.420 198.800,175.600 199.091,175.600 199.446 C 175.600 200.585,178.409 202.800,179.855 202.800 C 180.569 202.800,181.264 202.980,181.400 203.200 C 181.536 203.420,182.976 203.600,184.600 203.600 C 186.224 203.600,187.664 203.420,187.800 203.200 C 187.936 202.980,188.667 202.800,189.424 202.800 C 190.181 202.800,190.800 202.620,190.800 202.400 C 190.800 202.180,191.094 202.000,191.453 202.000 C 192.263 202.000,193.999 200.039,194.000 199.124 C 194.000 198.752,194.180 198.336,194.400 198.200 C 194.620 198.064,194.800 197.254,194.800 196.400 C 194.800 195.546,194.980 194.736,195.200 194.600 C 195.427 194.460,195.600 192.470,195.600 190.000 C 195.600 187.530,195.427 185.540,195.200 185.400 C 194.980 185.264,194.800 184.443,194.800 183.576 C 194.800 182.709,194.620 182.000,194.400 182.000 C 194.180 182.000,194.000 181.640,194.000 181.200 C 194.000 180.760,193.820 180.400,193.600 180.400 C 193.380 180.400,193.200 180.070,193.200 179.668 C 193.200 179.265,192.705 178.680,192.100 178.368 C 191.495 178.056,190.910 177.692,190.800 177.559 C 190.535 177.238,184.867 176.968,181.610 177.121 M198.000 190.000 L 198.000 202.800 201.200 202.800 L 204.400 202.800 204.400 196.800 C 204.400 193.067,204.551 190.800,204.800 190.800 C 205.020 190.800,205.200 191.120,205.200 191.512 C 205.200 191.903,205.560 192.483,206.000 192.800 C 206.440 193.117,206.800 193.697,206.800 194.088 C 206.800 194.480,206.980 194.800,207.200 194.800 C 207.420 194.800,207.600 195.036,207.600 195.325 C 207.600 195.613,207.960 196.236,208.400 196.708 C 208.840 197.180,209.200 197.804,209.200 198.095 C 209.200 198.386,209.560 198.883,210.000 199.200 C 210.440 199.517,210.800 200.097,210.800 200.488 C 210.800 200.880,210.959 201.200,211.153 201.200 C 211.348 201.200,211.601 201.560,211.716 202.000 C 211.905 202.722,212.262 202.800,215.363 202.800 L 218.800 202.800 218.800 190.000 L 218.800 177.200 215.600 177.200 L 212.400 177.200 212.400 183.600 C 212.400 187.600,212.250 190.000,212.000 190.000 C 211.780 190.000,211.600 189.722,211.600 189.383 C 211.600 189.044,211.240 188.380,210.800 187.908 C 210.360 187.436,210.000 186.813,210.000 186.525 C 210.000 186.236,209.820 186.000,209.600 186.000 C 209.380 186.000,209.200 185.680,209.200 185.288 C 209.200 184.897,208.840 184.317,208.400 184.000 C 207.960 183.683,207.600 183.103,207.600 182.712 C 207.600 182.320,207.420 182.000,207.200 182.000 C 206.980 182.000,206.800 181.764,206.800 181.475 C 206.800 181.187,206.440 180.564,206.000 180.092 C 205.560 179.620,205.200 179.033,205.200 178.788 C 205.200 177.654,204.009 177.200,201.029 177.200 L 198.000 177.200 198.000 190.000 M242.000 185.976 C 242.000 191.396,242.153 194.847,242.400 195.000 C 242.620 195.136,242.800 196.047,242.800 197.024 C 242.800 198.001,242.980 198.800,243.200 198.800 C 243.420 198.800,243.600 199.076,243.600 199.413 C 243.600 200.407,246.259 202.800,247.363 202.800 C 247.907 202.800,248.464 202.980,248.600 203.200 C 248.736 203.420,250.446 203.600,252.400 203.600 C 254.354 203.600,256.064 203.420,256.200 203.200 C 256.336 202.980,256.893 202.800,257.437 202.800 C 258.541 202.800,261.200 200.407,261.200 199.413 C 261.200 199.076,261.380 198.800,261.600 198.800 C 261.820 198.800,262.000 198.080,262.000 197.200 C 262.000 196.320,262.180 195.600,262.400 195.600 C 262.655 195.600,262.800 192.267,262.800 186.400 L 262.800 177.200 259.600 177.200 L 256.400 177.200 256.400 185.776 C 256.400 191.063,256.247 194.448,256.000 194.600 C 255.780 194.736,255.600 195.119,255.600 195.452 C 255.600 196.602,254.505 197.200,252.400 197.200 C 250.281 197.200,249.200 196.602,249.200 195.429 C 249.200 195.083,249.020 194.800,248.800 194.800 C 248.545 194.800,248.400 191.600,248.400 186.000 L 248.400 177.200 245.200 177.200 L 242.000 177.200 242.000 185.976 M265.200 188.400 C 265.200 195.600,265.343 199.600,265.600 199.600 C 265.820 199.600,266.000 199.878,266.000 200.218 C 266.000 202.364,267.516 202.800,274.982 202.800 L 282.000 202.800 282.000 200.000 L 282.000 197.200 276.800 197.200 L 271.600 197.200 271.600 187.200 L 271.600 177.200 268.400 177.200 L 265.200 177.200 265.200 188.400 M283.600 180.000 L 283.600 182.800 286.800 182.800 L 290.000 182.800 290.000 192.800 L 290.000 202.800 293.200 202.800 L 296.400 202.800 296.400 192.800 L 296.400 182.800 300.000 182.800 L 303.600 182.800 303.600 180.000 L 303.600 177.200 293.600 177.200 L 283.600 177.200 283.600 180.000 M312.400 177.976 C 312.400 178.403,312.220 178.864,312.000 179.000 C 311.780 179.136,311.600 179.676,311.600 180.200 C 311.600 180.724,311.420 181.264,311.200 181.400 C 310.980 181.536,310.800 182.076,310.800 182.600 C 310.800 183.124,310.620 183.664,310.400 183.800 C 310.180 183.936,310.000 184.487,310.000 185.024 C 310.000 185.561,309.820 186.000,309.600 186.000 C 309.380 186.000,309.200 186.540,309.200 187.200 C 309.200 187.860,309.020 188.400,308.800 188.400 C 308.580 188.400,308.400 188.940,308.400 189.600 C 308.400 190.260,308.220 190.800,308.000 190.800 C 307.780 190.800,307.600 191.340,307.600 192.000 C 307.600 192.660,307.420 193.200,307.200 193.200 C 306.980 193.200,306.800 193.740,306.800 194.400 C 306.800 195.060,306.620 195.600,306.400 195.600 C 306.180 195.600,306.000 196.140,306.000 196.800 C 306.000 197.460,305.820 198.000,305.600 198.000 C 305.380 198.000,305.200 198.540,305.200 199.200 C 305.200 199.860,305.020 200.400,304.800 200.400 C 304.580 200.400,304.400 200.940,304.400 201.600 L 304.400 202.800 307.520 202.800 C 310.843 202.800,311.600 202.455,311.600 200.944 C 311.600 200.451,311.780 199.936,312.000 199.800 C 312.220 199.664,312.400 199.203,312.400 198.776 C 312.400 198.065,312.703 198.000,316.000 198.000 C 319.333 198.000,319.600 198.059,319.600 198.800 C 319.600 199.240,319.780 199.600,320.000 199.600 C 320.220 199.600,320.400 200.104,320.400 200.720 C 320.400 202.468,321.051 202.800,324.480 202.800 L 327.600 202.800 327.600 201.600 C 327.600 200.940,327.420 200.400,327.200 200.400 C 326.980 200.400,326.800 199.860,326.800 199.200 C 326.800 198.540,326.620 198.000,326.400 198.000 C 326.180 198.000,326.000 197.460,326.000 196.800 C 326.000 196.140,325.820 195.600,325.600 195.600 C 325.380 195.600,325.200 195.060,325.200 194.400 C 325.200 193.740,325.020 193.200,324.800 193.200 C 324.580 193.200,324.400 192.660,324.400 192.000 C 324.400 191.340,324.220 190.800,324.000 190.800 C 323.780 190.800,323.600 190.260,323.600 189.600 C 323.600 188.940,323.420 188.400,323.200 188.400 C 322.980 188.400,322.800 187.860,322.800 187.200 C 322.800 186.540,322.620 186.000,322.400 186.000 C 322.180 186.000,322.000 185.471,322.000 184.824 C 322.000 184.177,321.820 183.536,321.600 183.400 C 321.380 183.264,321.200 182.724,321.200 182.200 C 321.200 181.676,321.020 181.136,320.800 181.000 C 320.580 180.864,320.394 180.268,320.387 179.676 C 320.363 177.586,319.656 177.200,315.856 177.200 C 312.702 177.200,312.400 177.268,312.400 177.976 M187.414 183.446 C 188.006 183.834,188.400 184.473,188.400 185.046 C 188.400 185.571,188.580 186.000,188.800 186.000 C 189.040 186.000,189.200 187.600,189.200 190.000 C 189.200 192.400,189.040 194.000,188.800 194.000 C 188.580 194.000,188.400 194.429,188.400 194.954 C 188.400 196.321,186.828 197.200,184.386 197.200 C 182.281 197.200,181.200 196.599,181.200 195.429 C 181.200 195.083,181.020 194.800,180.800 194.800 C 180.556 194.800,180.400 192.933,180.400 190.000 C 180.400 187.067,180.556 185.200,180.800 185.200 C 181.020 185.200,181.200 184.922,181.200 184.583 C 181.200 182.820,185.311 182.068,187.414 183.446 M316.400 188.400 C 316.400 188.840,316.580 189.200,316.800 189.200 C 317.020 189.200,317.200 189.740,317.200 190.400 C 317.200 191.467,317.067 191.600,316.000 191.600 C 315.067 191.600,314.800 191.422,314.800 190.800 C 314.800 190.360,314.980 190.000,315.200 190.000 C 315.420 190.000,315.600 189.460,315.600 188.800 C 315.600 188.140,315.780 187.600,316.000 187.600 C 316.220 187.600,316.400 187.960,316.400 188.400 M155.600 218.400 C 155.600 219.060,155.420 219.600,155.200 219.600 C 154.980 219.600,154.800 220.500,154.800 221.600 C 154.800 222.700,154.620 223.600,154.400 223.600 C 154.180 223.600,154.000 224.500,154.000 225.600 C 154.000 226.700,153.820 227.600,153.600 227.600 C 153.380 227.600,153.200 228.320,153.200 229.200 C 153.200 230.774,153.224 230.800,154.656 230.800 C 156.475 230.800,157.170 229.952,157.187 227.716 L 157.200 226.031 160.700 225.916 L 164.200 225.800 164.324 224.300 L 164.448 222.800 161.191 222.800 C 158.727 222.800,157.990 222.678,158.166 222.300 C 158.295 222.025,158.511 221.485,158.646 221.100 C 158.856 220.504,159.423 220.400,162.447 220.400 L 166.000 220.400 166.000 218.800 L 166.000 217.200 160.800 217.200 L 155.600 217.200 155.600 218.400 M172.667 217.467 C 172.520 217.613,172.400 218.503,172.400 219.443 C 172.400 220.383,172.220 221.264,172.000 221.400 C 171.780 221.536,171.600 222.501,171.600 223.544 C 171.600 224.587,171.436 225.611,171.236 225.820 C 171.036 226.029,170.811 227.190,170.736 228.400 L 170.600 230.600 172.300 230.723 L 174.000 230.846 174.000 229.223 C 174.000 228.330,174.180 227.600,174.400 227.600 C 174.620 227.600,174.800 226.700,174.800 225.600 C 174.800 224.500,174.980 223.600,175.200 223.600 C 175.420 223.600,175.600 222.700,175.600 221.600 C 175.600 220.500,175.780 219.600,176.000 219.600 C 176.220 219.600,176.400 219.060,176.400 218.400 C 176.400 217.222,173.609 216.525,172.667 217.467 M182.000 218.800 L 182.000 220.400 184.000 220.400 C 185.733 220.400,186.000 220.507,186.000 221.200 C 186.000 221.640,185.820 222.000,185.600 222.000 C 185.380 222.000,185.200 222.889,185.200 223.976 C 185.200 225.063,185.020 226.064,184.800 226.200 C 184.580 226.336,184.400 227.427,184.400 228.624 L 184.400 230.800 186.000 230.800 C 187.511 230.800,187.600 230.733,187.600 229.600 C 187.600 228.940,187.780 228.400,188.000 228.400 C 188.220 228.400,188.400 227.500,188.400 226.400 C 188.400 225.300,188.580 224.400,188.800 224.400 C 189.020 224.400,189.200 223.500,189.200 222.400 L 189.200 220.400 191.600 220.400 L 194.000 220.400 194.000 218.800 L 194.000 217.200 188.000 217.200 L 182.000 217.200 182.000 218.800 " stroke="none" fill="#040404" fill-rule="evenodd"></path><path id="path2" d="" stroke="none" fill="#1001c18" fill-rule="evenodd"></path><path id="path3" d="" stroke="none" fill="#441c18" fill-rule="evenodd"></path><path id="path4" d="" stroke="none" fill="#042018" fill-rule="evenodd"></path></g></svg>