<?xml version="1.0" standalone="no"?>
<!DOCTYPE svg PUBLIC "-//W3C//DTD SVG 20010904//EN"
 "http://www.w3.org/TR/2001/REC-SVG-20010904/DTD/svg10.dtd">
<svg version="1.0" xmlns="http://www.w3.org/2000/svg"
 width="422.000000pt" height="63.000000pt" viewBox="0 0 422.000000 63.000000"
 preserveAspectRatio="xMidYMid meet">

<g transform="translate(0.000000,63.000000) scale(0.100000,-0.100000)"
fill="#000000" stroke="none">
<path d="M218 433 c-54 -54 -98 -105 -98 -113 0 -9 44 -60 99 -114 100 -99
122 -111 145 -74 9 15 -2 31 -74 103 l-85 85 85 85 c72 72 83 88 74 103 -23
37 -47 25 -146 -75z"/>
<path d="M3842 518 c-7 -7 -12 -17 -12 -22 0 -6 37 -48 82 -93 l83 -83 -84
-84 c-75 -75 -82 -86 -72 -105 7 -11 20 -21 29 -21 10 0 65 47 122 105 l104
106 -104 104 c-103 103 -124 117 -148 93z"/>
<path d="M2180 485 c0 -8 9 -15 20 -15 11 0 20 7 20 15 0 8 -9 15 -20 15 -11
0 -20 -7 -20 -15z"/>
<path d="M517 462 c-14 -15 -17 -41 -17 -140 0 -166 -5 -162 180 -162 118 0
140 2 140 15 0 13 -21 15 -133 15 -90 0 -137 4 -145 12 -13 13 -17 202 -6 232
5 14 28 16 145 16 117 0 139 2 139 15 0 13 -23 15 -143 15 -127 0 -146 -2
-160 -18z"/>
<path d="M1190 320 l0 -160 143 0 c185 0 177 -7 177 162 0 165 7 158 -178 158
l-142 0 0 -160z m284 114 c11 -30 7 -219 -6 -232 -13 -13 -202 -17 -232 -6
-13 5 -16 26 -16 123 0 65 3 121 7 124 3 4 59 7 124 7 97 0 118 -3 123 -16z"/>
<path d="M886 398 c-12 -16 -16 -47 -16 -110 0 -120 8 -128 131 -128 131 0
129 -2 129 130 0 132 2 130 -134 130 -87 0 -96 -2 -110 -22z m198 -14 c13 -5
16 -23 16 -94 0 -101 1 -100 -95 -100 -96 0 -95 -1 -95 99 0 48 3 91 7 94 8 9
146 9 167 1z"/>
<path d="M1577 402 c-26 -28 -24 -202 1 -225 26 -24 242 -25 242 -2 0 12 -18
15 -103 15 -112 0 -127 6 -127 52 l0 28 115 0 115 0 0 59 c0 85 -9 91 -129 91
-82 0 -101 -3 -114 -18z m197 -18 c10 -4 16 -18 16 -40 l0 -34 -100 0 -100 0
0 28 c0 15 5 33 12 40 12 12 143 17 172 6z"/>
<path d="M1887 402 c-24 -26 -22 -87 3 -112 17 -17 33 -20 115 -20 l95 0 0
-34 c0 -41 -10 -46 -99 -46 -44 0 -74 5 -87 15 -40 31 -60 11 -24 -25 17 -17
33 -20 111 -20 117 0 129 7 129 70 0 72 -12 80 -126 80 -92 0 -94 1 -100 25
-11 43 10 55 97 55 56 0 82 -4 93 -15 20 -21 36 -19 36 5 0 30 -31 40 -133 40
-78 0 -97 -3 -110 -18z"/>
<path d="M2180 290 c0 -123 1 -130 20 -130 19 0 20 7 20 130 0 123 -1 130 -20
130 -19 0 -20 -7 -20 -130z"/>
<path d="M2286 398 c-12 -16 -16 -47 -16 -110 0 -121 7 -128 136 -128 l95 0
-3 -32 -3 -33 -87 -3 c-69 -2 -88 -6 -88 -17 0 -12 18 -15 93 -15 59 0 97 4
105 12 8 8 12 60 12 170 0 187 7 178 -134 178 -87 0 -96 -2 -110 -22z m198
-14 c13 -5 16 -23 16 -94 0 -101 1 -100 -95 -100 -96 0 -95 -1 -95 99 0 48 3
91 7 94 8 9 146 9 167 1z"/>
<path d="M2590 290 c0 -109 2 -130 15 -130 12 0 15 19 15 109 0 90 3 110 16
115 29 11 160 6 172 -6 8 -8 12 -48 12 -115 0 -85 3 -103 15 -103 12 0 15 19
15 113 0 149 2 147 -148 147 l-112 0 0 -130z"/>
<path d="M2917 402 c-26 -28 -24 -202 1 -225 26 -24 242 -25 242 -2 0 12 -18
15 -103 15 -112 0 -127 6 -127 52 l0 28 115 0 115 0 0 59 c0 85 -9 91 -129 91
-82 0 -101 -3 -114 -18z m197 -18 c10 -4 16 -18 16 -40 l0 -34 -100 0 -100 0
0 28 c0 15 5 33 12 40 12 12 143 17 172 6z"/>
<path d="M3227 402 c-24 -26 -25 -242 -2 -242 12 0 15 18 15 103 0 67 4 107
12 115 7 7 42 12 85 12 58 0 73 3 73 15 0 24 -161 21 -183 -3z"/>
<path d="M3457 402 c-24 -26 -22 -87 3 -112 17 -17 33 -20 115 -20 l95 0 0
-34 c0 -41 -10 -46 -99 -46 -44 0 -74 5 -87 15 -40 31 -60 11 -24 -25 17 -17
33 -20 111 -20 117 0 129 7 129 70 0 72 -12 80 -126 80 -92 0 -94 1 -100 25
-11 43 10 55 97 55 56 0 82 -4 93 -15 20 -21 36 -19 36 5 0 30 -31 40 -133 40
-78 0 -97 -3 -110 -18z"/>
</g>
</svg>
