<svg id="svg" version="1.1" xmlns="http://www.w3.org/2000/svg" xmlns:xlink="http://www.w3.org/1999/xlink" width="400" height="100.21052631578948" viewBox="0, 0, 400,100.21052631578948"><g id="svgg"><path id="path0" d="M113.444 12.278 C 113.383 12.339,113.333 12.526,113.333 12.694 C 113.333 12.944,113.200 13.000,112.604 13.000 C 111.407 13.000,110.833 13.169,110.833 13.521 C 110.833 13.727,110.714 13.833,110.484 13.833 C 110.291 13.833,109.924 14.058,109.667 14.333 C 109.379 14.641,109.033 14.833,108.766 14.833 C 108.438 14.833,108.333 14.918,108.333 15.182 C 108.333 15.395,108.199 15.566,107.987 15.622 C 107.613 15.720,107.333 16.279,107.333 16.928 C 107.333 17.249,107.247 17.333,106.917 17.333 C 106.528 17.333,106.500 17.389,106.500 18.167 C 106.500 18.944,106.472 19.000,106.083 19.000 C 105.676 19.000,105.667 19.029,105.667 20.238 C 105.667 21.396,105.642 21.480,105.292 21.530 C 104.924 21.582,104.916 21.632,104.871 24.125 C 104.828 26.474,104.801 26.667,104.515 26.667 C 104.044 26.667,104.005 27.060,104.002 31.771 C 104.000 36.546,104.053 37.108,104.520 37.256 C 104.807 37.347,104.833 37.551,104.833 39.664 C 104.833 42.198,104.888 42.500,105.344 42.500 C 105.611 42.500,105.659 42.662,105.701 43.708 C 105.746 44.808,105.783 44.921,106.116 44.969 C 106.425 45.013,106.490 45.143,106.533 45.802 C 106.576 46.467,106.639 46.591,106.958 46.637 C 107.240 46.677,107.334 46.801,107.336 47.137 C 107.339 47.899,107.523 48.333,107.841 48.333 C 108.028 48.333,108.164 48.477,108.197 48.708 C 108.230 48.944,108.384 49.102,108.609 49.135 C 108.828 49.166,109.009 49.345,109.071 49.593 C 109.141 49.873,109.289 50.000,109.547 50.000 C 109.775 50.000,109.985 50.146,110.085 50.375 C 110.198 50.631,110.475 50.800,110.958 50.907 C 111.448 51.015,111.667 51.150,111.667 51.344 C 111.667 51.642,112.378 51.828,113.534 51.831 C 113.916 51.833,114.387 51.993,114.766 52.250 L 115.380 52.667 119.898 52.665 C 124.909 52.663,125.673 52.597,125.788 52.154 C 125.857 51.893,126.129 51.852,128.115 51.804 C 130.183 51.754,130.387 51.721,130.655 51.390 C 130.815 51.192,131.127 51.005,131.348 50.973 L 131.750 50.917 131.800 47.917 C 131.863 44.144,131.791 43.567,131.239 43.429 C 130.752 43.307,130.167 43.576,130.167 43.923 C 130.167 44.132,129.326 44.167,124.175 44.167 L 118.184 44.167 117.744 43.759 C 117.483 43.518,117.056 43.331,116.694 43.301 C 116.249 43.264,116.039 43.148,115.919 42.875 C 115.822 42.655,115.608 42.500,115.399 42.500 C 115.098 42.500,115.026 42.372,114.932 41.667 C 114.842 40.987,114.762 40.833,114.494 40.833 C 114.210 40.833,114.166 40.716,114.164 39.958 C 114.161 38.774,114.023 38.333,113.656 38.333 C 113.258 38.333,113.237 37.906,113.296 31.060 C 113.339 26.040,113.361 25.698,113.646 25.624 C 113.975 25.538,114.167 24.873,114.167 23.813 C 114.167 23.345,114.237 23.167,114.421 23.167 C 114.705 23.167,115.000 22.524,115.000 21.906 C 115.000 21.597,115.089 21.499,115.375 21.498 C 116.044 21.494,116.467 21.309,116.552 20.985 C 116.686 20.472,129.053 20.492,129.473 21.004 C 129.842 21.455,131.334 21.651,131.634 21.289 C 131.787 21.105,131.828 20.120,131.795 17.479 L 131.750 13.917 131.348 13.860 C 131.127 13.829,130.815 13.641,130.655 13.443 C 130.392 13.119,130.173 13.078,128.432 13.027 C 126.974 12.985,126.500 12.917,126.500 12.752 C 126.500 12.237,113.941 11.781,113.444 12.278 M146.375 12.277 C 146.260 12.323,146.167 12.505,146.167 12.681 C 146.167 12.976,145.324 13.151,144.592 13.009 C 144.011 12.896,142.833 13.222,142.833 13.497 C 142.833 13.724,142.650 13.823,142.064 13.911 C 141.540 13.989,141.271 14.118,141.220 14.314 C 141.179 14.472,140.925 14.685,140.656 14.786 C 140.337 14.907,140.167 15.088,140.167 15.307 C 140.167 15.529,140.039 15.662,139.792 15.697 C 139.551 15.731,139.398 15.884,139.363 16.125 C 139.330 16.357,139.195 16.500,139.006 16.500 C 138.647 16.500,138.500 16.818,138.500 17.597 C 138.500 18.094,138.447 18.167,138.083 18.167 C 137.695 18.167,137.667 18.223,137.667 18.988 C 137.667 19.714,137.623 19.816,137.292 19.863 C 136.942 19.913,136.913 20.009,136.868 21.311 C 136.821 22.663,136.633 23.167,136.177 23.167 C 136.050 23.167,136.010 25.963,136.040 32.708 L 136.083 42.250 136.458 42.415 C 136.798 42.563,136.833 42.694,136.833 43.790 C 136.833 44.970,136.844 45.000,137.250 45.000 C 137.638 45.000,137.667 45.057,137.667 45.816 C 137.667 46.468,137.750 46.710,138.080 47.024 C 138.323 47.254,138.495 47.606,138.497 47.875 C 138.499 48.252,138.574 48.333,138.917 48.333 C 139.250 48.333,139.333 48.417,139.333 48.750 C 139.333 49.080,139.417 49.167,139.738 49.167 C 140.032 49.167,140.158 49.270,140.197 49.542 C 140.235 49.808,140.380 49.932,140.698 49.968 C 141.012 50.005,141.162 50.130,141.198 50.385 C 141.239 50.675,141.412 50.781,142.042 50.903 C 142.616 51.014,142.833 51.134,142.833 51.339 C 142.833 51.695,143.563 51.829,145.522 51.831 C 146.780 51.833,146.971 51.872,147.042 52.141 C 147.157 52.581,147.896 52.663,151.771 52.665 C 155.596 52.667,156.167 52.600,156.167 52.146 C 156.167 51.864,156.311 51.833,157.646 51.833 C 159.494 51.833,160.189 51.700,160.287 51.328 C 160.340 51.125,160.604 51.007,161.181 50.930 C 161.911 50.834,162.000 50.777,162.000 50.411 C 162.000 50.065,162.080 50.000,162.500 50.000 C 162.922 50.000,163.000 49.935,163.000 49.583 C 163.000 49.250,163.083 49.167,163.417 49.167 C 163.750 49.167,163.833 49.083,163.833 48.750 C 163.833 48.417,163.917 48.333,164.250 48.333 C 164.583 48.333,164.667 48.250,164.667 47.917 C 164.667 47.662,164.762 47.500,164.911 47.500 C 165.227 47.500,165.500 46.982,165.500 46.384 C 165.500 46.055,165.613 45.863,165.875 45.748 C 166.203 45.604,166.256 45.441,166.300 44.441 C 166.341 43.495,166.402 43.284,166.657 43.218 C 167.066 43.111,167.167 42.518,167.167 40.214 C 167.167 38.434,167.192 38.283,167.542 38.000 C 168.283 37.400,168.169 26.667,167.421 26.667 C 167.206 26.667,167.167 26.321,167.167 24.406 C 167.167 22.145,167.036 21.500,166.577 21.500 C 166.391 21.500,166.333 21.269,166.333 20.514 C 166.333 19.319,166.226 19.000,165.825 19.000 C 165.577 19.000,165.508 18.847,165.467 18.208 C 165.424 17.533,165.362 17.409,165.042 17.363 C 164.770 17.325,164.667 17.198,164.667 16.905 C 164.667 16.584,164.580 16.500,164.250 16.500 C 163.918 16.500,163.833 16.416,163.833 16.087 C 163.833 15.787,163.721 15.645,163.426 15.571 C 163.178 15.509,162.999 15.328,162.968 15.109 C 162.937 14.892,162.777 14.730,162.565 14.700 C 162.371 14.672,162.129 14.466,162.026 14.241 C 161.877 13.913,161.717 13.833,161.210 13.833 C 160.716 13.833,160.543 13.752,160.415 13.458 C 160.269 13.127,160.110 13.078,159.059 13.035 C 158.076 12.995,157.855 12.934,157.790 12.685 C 157.743 12.506,157.490 12.340,157.168 12.275 C 156.540 12.150,146.687 12.151,146.375 12.277 M172.642 12.278 C 172.175 12.402,172.171 12.575,172.169 32.372 L 172.167 51.660 172.542 51.752 C 172.748 51.802,174.829 51.823,177.167 51.797 L 181.417 51.750 181.460 41.475 L 181.503 31.199 181.917 31.391 C 182.177 31.512,182.331 31.722,182.332 31.958 C 182.333 32.247,182.429 32.333,182.750 32.333 C 183.133 32.333,183.167 32.394,183.167 33.087 C 183.167 33.739,183.224 33.863,183.583 34.000 C 183.827 34.093,184.000 34.291,184.000 34.477 C 184.000 34.652,184.188 34.918,184.417 35.068 C 184.728 35.272,184.833 35.487,184.833 35.917 C 184.833 36.393,184.906 36.512,185.250 36.598 C 185.531 36.669,185.667 36.819,185.669 37.060 C 185.673 37.737,185.870 38.167,186.175 38.167 C 186.381 38.167,186.495 38.313,186.531 38.625 C 186.568 38.953,186.690 39.098,186.958 39.137 C 187.262 39.180,187.333 39.296,187.333 39.748 C 187.333 40.522,187.482 40.833,187.851 40.833 C 188.055 40.833,188.167 40.951,188.167 41.165 C 188.167 41.348,188.335 41.690,188.542 41.926 C 188.748 42.161,188.955 42.556,189.001 42.802 C 189.057 43.098,189.206 43.267,189.442 43.301 C 189.726 43.342,189.821 43.507,189.912 44.112 C 189.993 44.649,190.116 44.895,190.332 44.951 C 190.501 44.995,190.684 45.212,190.739 45.432 C 190.801 45.677,190.961 45.833,191.152 45.833 C 191.520 45.833,191.667 46.147,191.667 46.930 C 191.667 47.427,191.720 47.500,192.083 47.500 C 192.437 47.500,192.500 47.577,192.500 48.008 C 192.500 48.336,192.648 48.653,192.917 48.902 C 193.146 49.114,193.333 49.448,193.333 49.644 C 193.333 49.913,193.436 50.000,193.750 50.000 C 194.137 50.000,194.167 50.057,194.167 50.812 C 194.167 51.844,194.093 51.829,199.376 51.831 L 203.335 51.833 203.292 32.042 L 203.250 12.250 199.167 12.250 L 195.083 12.250 195.040 23.268 L 194.998 34.287 194.602 34.211 C 194.268 34.147,194.188 34.005,194.097 33.318 C 194.009 32.653,193.927 32.500,193.661 32.500 C 193.423 32.500,193.333 32.386,193.333 32.087 C 193.333 31.784,193.221 31.645,192.917 31.568 C 192.566 31.481,192.500 31.366,192.500 30.849 C 192.500 30.175,192.264 29.833,191.800 29.833 C 191.561 29.833,191.500 29.697,191.500 29.163 C 191.500 28.600,191.433 28.466,191.083 28.333 C 190.791 28.222,190.667 28.050,190.667 27.754 C 190.667 27.419,190.584 27.333,190.259 27.333 C 189.891 27.333,189.847 27.256,189.801 26.542 C 189.757 25.866,189.695 25.742,189.375 25.697 C 189.100 25.658,189.000 25.532,189.000 25.227 C 189.000 24.679,188.715 24.167,188.411 24.167 C 188.251 24.167,188.167 23.995,188.167 23.667 C 188.167 23.247,188.101 23.167,187.759 23.167 C 187.391 23.167,187.347 23.090,187.301 22.375 C 187.257 21.699,187.195 21.576,186.875 21.530 C 186.626 21.495,186.500 21.362,186.500 21.137 C 186.500 20.951,186.313 20.650,186.083 20.470 C 185.784 20.235,185.667 19.982,185.667 19.571 C 185.667 19.076,185.612 19.000,185.259 19.000 C 184.891 19.000,184.847 18.923,184.801 18.208 C 184.757 17.533,184.695 17.409,184.375 17.363 C 184.104 17.325,184.000 17.198,184.000 16.905 C 184.000 16.584,183.913 16.500,183.583 16.500 C 183.196 16.500,183.167 16.443,183.167 15.685 C 183.167 14.966,183.120 14.858,182.772 14.770 C 182.463 14.693,182.353 14.522,182.267 13.985 C 182.189 13.498,182.062 13.275,181.829 13.214 C 181.648 13.166,181.500 13.002,181.500 12.847 C 181.500 12.205,181.233 12.166,177.008 12.186 C 174.758 12.197,172.793 12.238,172.642 12.278 M215.375 12.277 C 215.260 12.323,215.167 12.505,215.167 12.681 C 215.167 12.959,215.041 13.000,214.180 13.000 C 213.001 13.000,212.667 13.107,212.667 13.486 C 212.667 13.684,212.453 13.817,211.958 13.926 C 211.480 14.032,211.197 14.203,211.088 14.452 C 211.000 14.654,210.775 14.842,210.588 14.868 C 210.311 14.908,210.241 15.060,210.199 15.708 C 210.153 16.423,210.109 16.500,209.741 16.500 C 209.363 16.500,209.333 16.561,209.333 17.333 C 209.333 18.111,209.306 18.167,208.917 18.167 L 208.500 18.167 208.500 24.424 L 208.500 30.682 208.907 31.089 C 209.202 31.384,209.329 31.716,209.366 32.290 C 209.409 32.967,209.472 33.091,209.792 33.137 C 210.062 33.175,210.167 33.302,210.167 33.592 C 210.167 33.879,210.283 34.023,210.574 34.096 C 210.822 34.158,211.001 34.339,211.032 34.557 C 211.064 34.783,211.223 34.937,211.458 34.970 C 211.690 35.003,211.833 35.139,211.833 35.325 C 211.833 35.645,212.268 35.827,213.042 35.831 C 213.379 35.833,213.500 35.916,213.500 36.147 C 213.500 36.630,213.866 36.662,219.356 36.664 C 224.180 36.667,224.466 36.684,224.542 36.975 C 224.629 37.309,225.288 37.500,226.354 37.500 L 227.000 37.500 227.000 40.417 L 227.000 43.333 226.583 43.333 C 226.354 43.333,226.167 43.419,226.167 43.523 C 226.167 44.118,225.729 44.156,218.735 44.161 L 211.887 44.167 211.697 43.750 C 211.500 43.317,210.653 43.185,209.705 43.439 L 209.327 43.541 209.372 47.229 L 209.417 50.917 210.208 50.967 C 210.847 51.008,211.000 51.077,211.000 51.325 C 211.000 51.777,211.306 51.833,213.744 51.833 C 215.760 51.833,215.968 51.861,216.042 52.141 C 216.166 52.618,216.784 52.667,222.646 52.665 C 228.655 52.663,229.264 52.616,229.387 52.147 C 229.450 51.906,229.623 51.833,230.130 51.833 C 231.186 51.833,231.797 51.658,231.883 51.330 C 231.926 51.164,232.139 51.003,232.356 50.972 C 232.645 50.932,232.764 50.794,232.803 50.458 C 232.844 50.098,232.942 50.000,233.261 50.000 C 233.583 50.000,233.667 49.914,233.667 49.583 C 233.667 49.250,233.750 49.167,234.083 49.167 C 234.413 49.167,234.500 49.083,234.500 48.762 C 234.500 48.468,234.604 48.342,234.875 48.303 C 235.219 48.254,235.254 48.150,235.299 47.052 C 235.343 45.962,235.380 45.850,235.715 45.802 L 236.083 45.750 236.127 40.375 L 236.171 35.000 235.752 35.000 C 235.342 35.000,235.333 34.974,235.333 33.750 C 235.333 32.528,235.324 32.500,234.917 32.500 C 234.563 32.500,234.500 32.423,234.500 31.989 C 234.500 31.364,234.235 30.833,233.922 30.833 C 233.794 30.833,233.666 30.665,233.637 30.458 C 233.594 30.157,233.429 30.054,232.800 29.932 C 232.192 29.814,232.005 29.702,231.966 29.432 C 231.925 29.144,231.781 29.075,231.135 29.033 C 230.477 28.990,230.346 28.925,230.302 28.616 L 230.250 28.250 224.386 28.206 L 218.523 28.162 218.470 27.790 C 218.436 27.551,218.282 27.398,218.042 27.363 C 217.725 27.318,217.667 27.208,217.667 26.652 C 217.667 26.111,217.592 25.959,217.250 25.803 C 216.743 25.572,216.585 23.000,217.077 23.000 C 217.381 23.000,217.667 22.488,217.667 21.946 C 217.667 21.648,217.780 21.508,218.083 21.432 C 218.352 21.364,218.500 21.210,218.500 20.997 C 218.500 20.476,232.803 20.479,233.128 21.000 C 233.403 21.440,233.918 21.423,234.241 20.963 C 234.455 20.657,234.500 20.002,234.500 17.213 L 234.500 13.833 234.083 13.833 C 233.786 13.833,233.667 13.743,233.667 13.518 C 233.667 13.055,233.371 13.000,230.887 13.000 C 228.812 13.000,228.629 12.975,228.552 12.682 C 228.507 12.507,228.307 12.321,228.110 12.268 C 227.671 12.150,215.668 12.159,215.375 12.277 M241.333 12.333 C 241.333 12.425,241.219 12.500,241.079 12.500 C 240.542 12.500,240.500 13.367,240.500 24.445 L 240.500 35.535 240.917 35.863 L 241.333 36.191 241.333 39.762 L 241.333 43.333 241.744 43.333 C 242.149 43.333,242.155 43.355,242.202 44.958 C 242.247 46.488,242.271 46.586,242.616 46.635 C 242.925 46.679,242.990 46.810,243.033 47.469 C 243.076 48.134,243.139 48.258,243.458 48.303 C 243.730 48.342,243.833 48.468,243.833 48.762 C 243.833 49.083,243.920 49.167,244.250 49.167 C 244.583 49.167,244.667 49.250,244.667 49.583 C 244.667 49.913,244.751 50.000,245.072 50.000 C 245.365 50.000,245.492 50.104,245.530 50.375 C 245.573 50.677,245.738 50.780,246.375 50.903 C 246.954 51.015,247.167 51.133,247.167 51.343 C 247.167 51.749,247.499 51.833,249.086 51.833 C 250.302 51.833,250.490 51.873,250.577 52.147 C 250.725 52.612,251.290 52.667,255.896 52.665 C 260.614 52.663,261.279 52.600,261.423 52.146 C 261.506 51.884,261.692 51.833,262.574 51.833 C 263.980 51.833,264.638 51.685,264.746 51.345 C 264.799 51.178,265.124 51.000,265.543 50.907 C 266.025 50.800,266.302 50.631,266.415 50.375 C 266.515 50.145,266.725 50.000,266.956 50.000 C 267.247 50.000,267.333 49.905,267.333 49.583 C 267.333 49.250,267.417 49.167,267.750 49.167 C 268.083 49.167,268.167 49.083,268.167 48.750 C 268.167 48.495,268.262 48.333,268.411 48.333 C 268.734 48.333,269.000 47.811,269.000 47.178 C 269.000 46.744,269.063 46.667,269.417 46.667 C 269.805 46.667,269.833 46.611,269.833 45.841 C 269.833 45.182,269.918 44.931,270.250 44.598 C 270.639 44.209,270.667 44.071,270.667 42.503 C 270.667 40.867,270.677 40.821,271.083 40.667 L 271.500 40.508 271.500 26.439 C 271.500 13.763,271.474 12.359,271.236 12.268 C 270.798 12.100,263.220 12.155,262.761 12.329 L 262.333 12.492 262.333 26.234 L 262.333 39.977 261.958 40.030 C 261.639 40.075,261.576 40.200,261.533 40.865 C 261.490 41.523,261.425 41.654,261.116 41.698 C 260.890 41.730,260.730 41.887,260.699 42.109 C 260.668 42.328,260.488 42.509,260.240 42.571 C 259.980 42.636,259.833 42.792,259.833 43.003 C 259.833 43.242,259.721 43.333,259.428 43.333 C 258.809 43.333,258.167 43.628,258.167 43.913 C 258.167 44.127,257.830 44.167,256.000 44.167 C 254.208 44.167,253.833 44.124,253.833 43.923 C 253.833 43.602,253.312 43.333,252.689 43.333 C 252.298 43.333,252.178 43.252,252.137 42.958 C 252.102 42.717,251.949 42.564,251.708 42.530 C 251.437 42.492,251.333 42.365,251.333 42.072 C 251.333 41.753,251.246 41.667,250.924 41.667 C 250.535 41.667,250.513 41.612,250.466 40.542 C 250.423 39.559,250.369 39.396,250.042 39.252 L 249.667 39.088 249.667 25.728 C 249.667 13.700,249.640 12.359,249.403 12.268 C 248.940 12.090,241.333 12.152,241.333 12.333 M276.875 12.273 C 276.710 12.343,276.667 16.033,276.667 29.931 L 276.667 47.500 277.083 47.500 C 277.472 47.500,277.500 47.556,277.500 48.333 C 277.500 49.111,277.528 49.167,277.917 49.167 C 278.250 49.167,278.333 49.250,278.333 49.583 C 278.333 49.914,278.417 50.000,278.739 50.000 C 279.058 50.000,279.156 50.098,279.197 50.458 C 279.238 50.813,279.349 50.928,279.691 50.968 C 279.946 50.997,280.166 51.145,280.211 51.317 C 280.339 51.807,280.920 51.833,291.604 51.833 L 301.833 51.833 301.833 48.000 L 301.833 44.167 294.667 44.167 C 288.356 44.167,287.500 44.136,287.500 43.913 C 287.500 43.628,286.858 43.333,286.239 43.333 L 285.833 43.333 285.833 28.115 C 285.833 15.242,285.797 12.847,285.597 12.574 C 285.365 12.256,277.550 11.987,276.875 12.273 M304.612 12.277 C 304.550 12.338,304.500 14.251,304.500 16.528 L 304.500 20.667 309.499 20.667 L 314.498 20.667 314.541 36.208 L 314.583 51.750 319.167 51.750 L 323.750 51.750 323.793 36.208 L 323.835 20.667 328.837 20.667 L 333.839 20.667 333.795 16.458 L 333.750 12.250 319.237 12.207 C 311.255 12.184,304.674 12.215,304.612 12.277 M350.036 12.364 C 349.925 12.475,349.833 12.646,349.833 12.744 C 349.833 12.841,349.665 12.995,349.458 13.085 C 349.127 13.231,349.078 13.390,349.035 14.448 C 348.990 15.538,348.953 15.650,348.618 15.698 C 348.283 15.745,348.246 15.857,348.201 16.948 C 348.157 18.038,348.120 18.150,347.785 18.198 C 347.450 18.245,347.412 18.357,347.368 19.448 C 347.324 20.538,347.286 20.650,346.951 20.698 C 346.616 20.745,346.579 20.857,346.535 21.948 C 346.490 23.038,346.453 23.150,346.118 23.198 C 345.783 23.245,345.746 23.357,345.701 24.448 C 345.657 25.538,345.620 25.650,345.285 25.698 C 344.950 25.745,344.912 25.857,344.868 26.948 C 344.824 28.038,344.786 28.150,344.451 28.198 C 344.123 28.244,344.078 28.362,344.034 29.293 C 343.991 30.187,343.926 30.374,343.575 30.604 C 343.219 30.837,343.167 30.996,343.167 31.840 C 343.167 32.675,343.109 32.854,342.750 33.137 C 342.414 33.401,342.333 33.612,342.333 34.225 C 342.333 34.813,342.239 35.079,341.917 35.402 C 341.572 35.746,341.500 35.979,341.500 36.742 C 341.500 37.460,341.443 37.667,341.246 37.667 C 340.902 37.667,340.667 38.349,340.667 39.344 C 340.667 39.955,340.604 40.167,340.423 40.167 C 340.043 40.167,339.833 40.726,339.833 41.739 C 339.833 42.538,339.790 42.667,339.518 42.667 C 339.107 42.667,339.000 42.979,339.000 44.180 C 339.000 45.037,338.959 45.167,338.684 45.167 C 338.274 45.167,338.167 45.479,338.167 46.669 C 338.167 47.553,338.132 47.648,337.792 47.697 C 337.448 47.746,337.413 47.850,337.368 48.948 C 337.324 50.038,337.286 50.150,336.951 50.198 C 336.643 50.242,336.583 50.356,336.583 50.906 C 336.583 51.814,336.789 51.848,342.034 51.794 L 346.417 51.750 346.467 50.917 C 346.504 50.297,346.609 50.012,346.877 49.806 C 347.172 49.579,347.250 49.315,347.304 48.345 C 347.361 47.340,347.431 47.114,347.769 46.848 C 348.121 46.571,348.167 46.401,348.167 45.351 C 348.167 44.199,348.178 44.167,348.583 44.167 C 348.917 44.167,349.000 44.083,349.000 43.750 L 349.000 43.333 354.500 43.333 L 360.000 43.333 360.000 44.320 C 360.000 45.516,360.107 45.833,360.511 45.833 C 360.778 45.833,360.825 45.995,360.868 47.042 C 360.913 48.150,360.948 48.254,361.292 48.303 C 361.640 48.353,361.667 48.440,361.667 49.516 C 361.667 50.589,361.697 50.686,362.071 50.828 C 362.305 50.917,362.497 51.144,362.529 51.366 L 362.583 51.750 367.167 51.750 L 371.750 51.750 371.802 50.928 C 371.873 49.804,371.734 49.333,371.330 49.333 C 371.037 49.333,371.000 49.219,371.000 48.322 C 371.000 47.232,370.799 46.667,370.411 46.667 C 370.228 46.667,370.166 46.448,370.164 45.792 C 370.161 44.598,370.024 44.167,369.647 44.167 C 369.375 44.167,369.333 44.035,369.333 43.180 C 369.333 41.979,369.226 41.667,368.816 41.667 C 368.541 41.667,368.500 41.537,368.500 40.680 C 368.500 39.432,368.395 39.167,367.899 39.167 C 367.516 39.167,367.500 39.120,367.500 37.982 C 367.500 36.918,367.458 36.765,367.083 36.470 C 366.722 36.186,366.667 36.010,366.667 35.147 C 366.667 34.307,366.601 34.086,366.250 33.735 C 365.906 33.391,365.833 33.157,365.833 32.398 C 365.833 31.392,365.623 30.833,365.244 30.833 C 365.057 30.833,365.000 30.602,365.000 29.847 C 365.000 28.646,364.893 28.333,364.482 28.333 C 364.203 28.333,364.167 28.200,364.167 27.163 C 364.167 26.082,364.136 25.979,363.757 25.806 C 363.385 25.637,363.342 25.509,363.298 24.435 C 363.254 23.357,363.217 23.245,362.882 23.198 C 362.547 23.150,362.510 23.038,362.465 21.948 C 362.421 20.857,362.384 20.745,362.049 20.698 C 361.714 20.650,361.676 20.538,361.632 19.448 C 361.587 18.350,361.552 18.246,361.208 18.197 C 360.858 18.147,360.833 18.062,360.833 16.905 C 360.833 15.695,360.824 15.667,360.417 15.667 C 360.009 15.667,360.000 15.639,360.000 14.420 C 360.000 13.237,359.979 13.168,359.593 13.071 C 359.345 13.009,359.166 12.828,359.135 12.609 C 359.073 12.176,350.457 11.943,350.036 12.364 M155.099 21.083 C 155.346 21.313,155.725 21.500,155.941 21.500 C 156.222 21.500,156.333 21.594,156.333 21.833 C 156.333 22.023,156.444 22.167,156.592 22.167 C 156.734 22.167,156.929 22.392,157.025 22.667 C 157.136 22.986,157.314 23.167,157.516 23.167 C 157.785 23.167,157.833 23.292,157.833 23.989 C 157.833 24.985,158.069 25.667,158.413 25.667 C 158.636 25.667,158.667 26.462,158.667 32.250 C 158.667 35.871,158.671 38.890,158.675 38.958 C 158.680 39.027,158.549 39.111,158.384 39.144 C 157.968 39.229,157.839 39.480,157.836 40.208 C 157.834 40.612,157.713 40.953,157.495 41.172 C 157.309 41.358,157.113 41.729,157.059 41.996 C 156.993 42.326,156.848 42.498,156.606 42.533 C 156.384 42.564,156.230 42.724,156.197 42.958 C 156.152 43.272,156.040 43.333,155.509 43.333 C 154.405 43.333,153.833 43.511,153.833 43.854 C 153.833 44.144,153.672 44.167,151.583 44.167 C 149.678 44.167,149.333 44.128,149.333 43.913 C 149.333 43.580,148.659 43.333,147.751 43.333 C 147.123 43.333,147.016 43.282,146.970 42.958 C 146.936 42.722,146.783 42.564,146.555 42.532 C 146.275 42.492,146.167 42.327,146.078 41.803 C 146.000 41.339,145.865 41.100,145.649 41.044 C 145.379 40.973,145.333 40.799,145.333 39.837 C 145.333 38.913,145.259 38.604,144.917 38.099 L 144.500 37.485 144.500 32.420 C 144.500 27.616,144.516 27.351,144.812 27.257 C 145.173 27.142,145.329 26.434,145.331 24.894 C 145.333 24.018,145.380 23.860,145.662 23.786 C 145.895 23.725,146.022 23.502,146.100 23.017 C 146.182 22.502,146.285 22.333,146.518 22.333 C 146.706 22.333,146.867 22.175,146.929 21.929 C 147.008 21.612,147.177 21.499,147.702 21.411 C 148.162 21.333,148.400 21.198,148.456 20.982 C 148.604 20.418,154.478 20.508,155.099 21.083 M355.222 28.625 C 355.294 28.740,355.458 28.833,355.586 28.833 C 355.762 28.833,355.831 29.153,355.868 30.125 C 355.913 31.320,355.945 31.421,356.292 31.470 C 356.642 31.520,356.667 31.605,356.667 32.750 C 356.667 33.895,356.692 33.980,357.042 34.030 C 357.368 34.076,357.423 34.196,357.467 34.958 L 357.517 35.833 354.509 35.833 L 351.500 35.833 351.500 34.936 C 351.500 34.181,351.552 34.025,351.831 33.952 C 352.237 33.846,352.500 33.200,352.500 32.308 C 352.500 31.820,352.599 31.557,352.863 31.343 C 353.144 31.116,353.242 30.820,353.299 30.030 C 353.356 29.243,353.440 28.989,353.666 28.917 C 353.983 28.816,354.167 28.170,354.167 27.157 C 354.167 26.669,354.244 26.498,354.500 26.417 C 354.685 26.358,354.845 26.149,354.860 25.947 C 354.874 25.747,354.932 26.221,354.988 27.000 C 355.045 27.779,355.150 28.510,355.222 28.625 M106.601 74.764 C 106.546 74.909,106.500 75.828,106.500 76.807 C 106.500 78.494,106.480 78.596,106.125 78.752 C 105.770 78.908,105.748 79.023,105.703 80.947 C 105.658 82.902,105.643 82.980,105.287 83.031 C 104.931 83.081,104.915 83.160,104.870 85.114 C 104.825 87.068,104.809 87.147,104.453 87.197 C 104.097 87.248,104.082 87.326,104.037 89.281 C 103.992 91.235,103.976 91.313,103.620 91.364 C 103.300 91.410,103.250 91.519,103.250 92.167 L 103.250 92.917 105.292 92.963 L 107.333 93.010 107.333 92.600 C 107.333 92.302,107.435 92.175,107.708 92.137 C 108.071 92.085,108.085 92.015,108.130 90.058 C 108.176 88.061,108.182 88.032,108.588 87.930 C 108.949 87.840,109.000 87.735,109.000 87.088 L 109.000 86.349 113.409 86.299 C 116.749 86.262,117.870 86.198,118.034 86.033 C 118.311 85.755,118.422 83.244,118.184 82.625 L 118.008 82.167 113.921 82.167 L 109.833 82.167 109.833 80.833 C 109.833 79.522,109.840 79.500,110.250 79.500 C 110.639 79.500,110.667 79.444,110.667 78.667 L 110.667 77.833 115.750 77.833 L 120.833 77.833 120.833 76.167 L 120.833 74.500 113.768 74.500 C 107.479 74.500,106.691 74.529,106.601 74.764 M131.000 74.893 C 131.000 75.184,130.884 75.326,130.588 75.400 C 130.182 75.502,130.176 75.530,130.130 77.544 C 130.085 79.516,130.071 79.585,129.708 79.637 C 129.343 79.689,129.333 79.740,129.333 81.750 C 129.333 83.760,129.324 83.811,128.958 83.863 C 128.596 83.915,128.582 83.985,128.537 85.947 C 128.492 87.902,128.476 87.980,128.120 88.031 C 127.724 88.087,127.359 91.131,127.589 92.463 L 127.684 93.010 129.717 92.963 L 131.750 92.917 131.797 91.042 C 131.842 89.257,131.864 89.154,132.255 88.898 C 132.651 88.639,132.667 88.559,132.667 86.818 C 132.667 85.071,132.681 84.998,133.083 84.735 C 133.486 84.471,133.500 84.399,133.500 82.636 C 133.500 80.823,133.639 80.333,134.155 80.333 C 134.271 80.333,134.333 79.670,134.333 78.421 C 134.333 76.554,134.344 76.501,134.758 76.229 C 135.118 75.994,135.176 75.845,135.133 75.267 L 135.083 74.583 133.042 74.537 L 131.000 74.490 131.000 74.893 M143.604 75.021 C 143.547 75.307,143.500 75.823,143.500 76.167 C 143.500 76.510,143.547 77.026,143.604 77.313 L 143.708 77.833 146.188 77.833 L 148.667 77.833 148.667 79.572 C 148.667 81.248,148.653 81.312,148.292 81.363 C 147.929 81.415,147.915 81.485,147.870 83.447 C 147.825 85.402,147.809 85.480,147.453 85.531 C 147.097 85.581,147.082 85.660,147.037 87.614 C 146.992 89.568,146.976 89.647,146.620 89.697 C 146.271 89.747,146.247 89.840,146.202 91.375 L 146.155 93.000 148.244 93.000 L 150.333 93.000 150.333 91.762 C 150.333 90.604,150.358 90.520,150.708 90.470 C 151.071 90.418,151.085 90.349,151.130 88.392 C 151.176 86.394,151.182 86.366,151.588 86.264 C 151.999 86.161,152.000 86.153,152.000 84.080 L 152.000 82.000 152.417 82.000 L 152.833 82.000 152.833 80.155 C 152.833 77.684,152.604 77.833,156.405 77.833 L 159.500 77.833 159.500 76.167 L 159.500 74.500 151.604 74.500 L 143.708 74.500 143.604 75.021 " stroke="none" fill="#fcfcfc" fill-rule="evenodd"></path><path id="path1" d="M56.407 15.070 C 56.091 15.301,56.082 15.698,56.039 32.380 L 55.995 49.453 55.590 49.375 C 55.335 49.327,55.166 49.166,55.134 48.941 C 55.102 48.717,54.943 48.563,54.708 48.530 C 54.465 48.496,54.333 48.362,54.333 48.151 C 54.333 47.957,54.165 47.761,53.917 47.667 C 53.688 47.580,53.500 47.392,53.500 47.251 C 53.500 47.109,53.313 46.907,53.083 46.803 C 52.854 46.699,52.667 46.511,52.667 46.386 C 52.667 46.262,52.487 46.078,52.268 45.978 C 52.049 45.878,51.788 45.617,51.689 45.398 C 51.589 45.179,51.391 45.000,51.249 45.000 C 51.108 45.000,50.920 44.813,50.833 44.583 C 50.746 44.354,50.559 44.167,50.417 44.167 C 50.275 44.167,50.087 43.979,50.000 43.750 C 49.913 43.521,49.725 43.333,49.583 43.333 C 49.441 43.333,49.254 43.146,49.167 42.917 C 49.080 42.688,48.892 42.500,48.750 42.500 C 48.608 42.500,48.420 42.313,48.333 42.083 C 48.239 41.835,48.043 41.667,47.849 41.667 C 47.638 41.667,47.504 41.535,47.470 41.292 C 47.436 41.054,47.283 40.898,47.052 40.865 C 46.825 40.832,46.668 40.675,46.635 40.448 C 46.603 40.221,46.446 40.064,46.219 40.031 C 45.991 39.999,45.834 39.842,45.802 39.615 C 45.770 39.388,45.612 39.230,45.385 39.198 C 45.158 39.166,45.001 39.009,44.969 38.781 C 44.936 38.554,44.779 38.397,44.552 38.365 C 44.325 38.332,44.168 38.175,44.135 37.948 C 44.103 37.721,43.946 37.564,43.719 37.531 C 43.491 37.499,43.334 37.342,43.302 37.115 C 43.270 36.888,43.112 36.730,42.885 36.698 C 42.658 36.666,42.501 36.509,42.469 36.281 C 42.436 36.054,42.279 35.897,42.052 35.865 C 41.825 35.832,41.668 35.675,41.635 35.448 C 41.603 35.221,41.446 35.064,41.219 35.031 C 40.991 34.999,40.834 34.842,40.802 34.615 C 40.770 34.388,40.612 34.230,40.385 34.198 C 40.158 34.166,40.001 34.009,39.969 33.781 C 39.921 33.446,39.823 33.417,38.750 33.417 L 37.583 33.417 37.541 50.685 L 37.498 67.953 37.096 67.877 C 36.846 67.829,36.656 67.649,36.594 67.400 C 36.533 67.156,36.372 67.000,36.182 67.000 C 35.988 67.000,35.830 66.842,35.765 66.583 C 35.698 66.316,35.543 66.167,35.333 66.167 C 35.124 66.167,34.969 66.017,34.902 65.750 C 34.837 65.491,34.679 65.333,34.485 65.333 C 34.291 65.333,34.133 65.176,34.068 64.917 C 34.003 64.658,33.846 64.500,33.652 64.500 C 33.461 64.500,33.301 64.344,33.239 64.099 C 33.184 63.879,32.989 63.659,32.807 63.611 C 32.624 63.564,32.434 63.368,32.384 63.177 C 32.334 62.986,32.115 62.785,31.897 62.730 C 31.656 62.670,31.500 62.508,31.500 62.318 C 31.500 62.126,31.343 61.967,31.093 61.904 C 30.845 61.842,30.666 61.661,30.635 61.443 C 30.603 61.221,30.444 61.063,30.219 61.031 C 29.991 60.999,29.834 60.842,29.802 60.615 C 29.770 60.388,29.612 60.230,29.385 60.198 C 29.158 60.166,29.001 60.009,28.969 59.781 C 28.936 59.554,28.779 59.397,28.552 59.365 C 28.325 59.332,28.168 59.175,28.135 58.948 C 28.103 58.721,27.946 58.564,27.719 58.531 C 27.491 58.499,27.334 58.342,27.302 58.115 C 27.270 57.888,27.112 57.730,26.885 57.698 C 26.658 57.666,26.501 57.509,26.469 57.281 C 26.436 57.054,26.279 56.897,26.052 56.865 C 25.825 56.832,25.668 56.675,25.635 56.448 C 25.603 56.221,25.446 56.064,25.219 56.031 C 24.991 55.999,24.834 55.842,24.802 55.615 C 24.770 55.388,24.612 55.230,24.385 55.198 C 24.158 55.166,24.001 55.009,23.969 54.781 C 23.936 54.554,23.779 54.397,23.552 54.365 C 23.325 54.332,23.168 54.175,23.135 53.948 C 23.103 53.721,22.946 53.564,22.719 53.531 C 22.491 53.499,22.334 53.342,22.302 53.115 C 22.270 52.888,22.112 52.730,21.885 52.698 C 21.658 52.666,21.501 52.509,21.469 52.281 C 21.425 51.973,21.293 51.909,20.624 51.866 L 19.832 51.815 19.874 71.116 L 19.917 90.417 38.750 90.417 L 57.583 90.417 57.583 89.250 C 57.583 88.177,57.554 88.079,57.219 88.031 C 56.991 87.999,56.834 87.842,56.802 87.615 C 56.770 87.388,56.612 87.230,56.385 87.198 C 56.158 87.166,56.001 87.009,55.969 86.781 C 55.936 86.554,55.779 86.397,55.552 86.365 C 55.325 86.332,55.168 86.175,55.135 85.948 C 55.103 85.721,54.946 85.564,54.719 85.531 C 54.491 85.499,54.334 85.342,54.302 85.115 C 54.270 84.888,54.112 84.730,53.885 84.698 C 53.658 84.666,53.501 84.509,53.469 84.281 C 53.437 84.056,53.279 83.897,53.057 83.865 C 52.839 83.834,52.658 83.655,52.596 83.407 C 52.533 83.157,52.374 83.000,52.182 83.000 C 51.988 83.000,51.830 82.842,51.765 82.583 C 51.698 82.316,51.543 82.167,51.333 82.167 C 51.124 82.167,50.969 82.017,50.902 81.750 C 50.837 81.491,50.679 81.333,50.485 81.333 C 50.294 81.333,50.134 81.177,50.072 80.932 C 50.017 80.712,49.823 80.492,49.640 80.445 C 49.458 80.397,49.270 80.212,49.224 80.033 C 49.177 79.854,48.957 79.625,48.736 79.524 C 48.514 79.423,48.333 79.228,48.333 79.090 C 48.333 78.952,48.150 78.794,47.926 78.738 C 47.678 78.675,47.499 78.495,47.468 78.276 C 47.436 78.054,47.277 77.897,47.052 77.865 C 46.825 77.832,46.668 77.675,46.635 77.448 C 46.603 77.221,46.446 77.064,46.219 77.031 C 45.991 76.999,45.834 76.842,45.802 76.615 C 45.770 76.388,45.612 76.230,45.385 76.198 C 45.158 76.166,45.001 76.009,44.969 75.781 C 44.936 75.554,44.779 75.397,44.552 75.365 C 44.325 75.332,44.168 75.175,44.135 74.948 C 44.103 74.721,43.946 74.564,43.719 74.531 C 43.491 74.499,43.334 74.342,43.302 74.115 C 43.270 73.888,43.112 73.730,42.885 73.698 C 42.658 73.666,42.501 73.509,42.469 73.281 C 42.437 73.057,42.279 72.897,42.059 72.866 C 41.833 72.834,41.673 72.665,41.624 72.407 L 41.546 72.000 58.856 72.000 L 76.167 72.000 76.167 70.750 C 76.167 69.528,76.157 69.500,75.750 69.500 C 75.417 69.500,75.333 69.417,75.333 69.083 C 75.333 68.750,75.250 68.667,74.917 68.667 C 74.583 68.667,74.500 68.583,74.500 68.250 C 74.500 67.920,74.416 67.833,74.095 67.833 C 73.802 67.833,73.675 67.730,73.637 67.458 C 73.603 67.221,73.449 67.064,73.219 67.031 C 72.991 66.999,72.834 66.842,72.802 66.615 C 72.770 66.388,72.612 66.230,72.385 66.198 C 72.158 66.166,72.001 66.009,71.969 65.781 C 71.936 65.551,71.779 65.397,71.542 65.363 C 71.299 65.329,71.167 65.195,71.167 64.984 C 71.167 64.790,70.998 64.594,70.750 64.500 C 70.521 64.413,70.333 64.226,70.333 64.084 C 70.333 63.942,70.146 63.741,69.917 63.636 C 69.688 63.532,69.500 63.344,69.500 63.220 C 69.500 63.095,69.319 62.910,69.097 62.809 C 68.876 62.709,68.657 62.480,68.610 62.301 C 68.563 62.122,68.378 61.937,68.199 61.890 C 68.020 61.843,67.791 61.624,67.691 61.403 C 67.590 61.181,67.391 61.000,67.249 61.000 C 67.108 61.000,66.920 60.813,66.833 60.583 C 66.746 60.354,66.559 60.167,66.417 60.167 C 66.275 60.167,66.087 59.979,66.000 59.750 C 65.913 59.521,65.725 59.333,65.583 59.333 C 65.441 59.333,65.254 59.146,65.167 58.917 C 65.080 58.688,64.892 58.500,64.750 58.500 C 64.608 58.500,64.420 58.313,64.333 58.083 C 64.239 57.835,64.043 57.667,63.849 57.667 C 63.638 57.667,63.504 57.535,63.470 57.292 C 63.436 57.054,63.283 56.898,63.052 56.865 C 62.825 56.832,62.668 56.675,62.635 56.448 C 62.603 56.221,62.446 56.064,62.219 56.031 C 61.991 55.999,61.834 55.842,61.802 55.615 C 61.770 55.388,61.612 55.230,61.385 55.198 C 61.158 55.166,61.001 55.009,60.969 54.781 C 60.937 54.557,60.779 54.397,60.559 54.366 C 60.334 54.334,60.173 54.165,60.124 53.908 L 60.047 53.502 77.315 53.459 L 94.583 53.417 94.632 52.208 C 94.681 51.012,94.677 51.000,94.257 51.000 C 93.916 51.000,93.833 50.919,93.833 50.583 C 93.833 50.250,93.750 50.167,93.417 50.167 C 93.083 50.167,93.000 50.083,93.000 49.750 C 93.000 49.417,92.917 49.333,92.583 49.333 C 92.250 49.333,92.167 49.250,92.167 48.917 C 92.167 48.583,92.083 48.500,91.750 48.500 C 91.420 48.500,91.333 48.416,91.333 48.095 C 91.333 47.802,91.230 47.675,90.958 47.637 C 90.723 47.603,90.564 47.449,90.532 47.224 C 90.501 47.005,90.322 46.825,90.074 46.762 C 89.815 46.698,89.667 46.541,89.667 46.333 C 89.667 46.124,89.517 45.969,89.250 45.902 C 88.991 45.837,88.833 45.679,88.833 45.485 C 88.833 45.291,88.676 45.133,88.417 45.068 C 88.158 45.003,88.000 44.846,88.000 44.652 C 88.000 44.458,87.842 44.300,87.583 44.235 C 87.324 44.170,87.167 44.012,87.167 43.818 C 87.167 43.628,87.010 43.467,86.764 43.405 C 86.525 43.345,86.321 43.142,86.261 42.902 C 86.200 42.656,86.039 42.500,85.848 42.500 C 85.654 42.500,85.497 42.342,85.432 42.083 C 85.367 41.824,85.209 41.667,85.015 41.667 C 84.821 41.667,84.663 41.509,84.598 41.250 C 84.533 40.991,84.375 40.833,84.182 40.833 C 83.988 40.833,83.830 40.676,83.765 40.417 C 83.698 40.149,83.543 40.000,83.333 40.000 C 83.126 40.000,82.969 39.852,82.904 39.593 C 82.842 39.345,82.661 39.166,82.443 39.135 C 82.221 39.103,82.063 38.944,82.031 38.719 C 81.999 38.491,81.842 38.334,81.615 38.302 C 81.388 38.270,81.230 38.112,81.198 37.885 C 81.166 37.658,81.009 37.501,80.781 37.469 C 80.551 37.436,80.397 37.279,80.363 37.042 C 80.325 36.770,80.198 36.667,79.905 36.667 C 79.584 36.667,79.500 36.580,79.500 36.250 C 79.500 35.917,79.417 35.833,79.083 35.833 C 78.750 35.833,78.667 35.750,78.667 35.417 C 78.667 35.083,78.583 35.000,78.250 35.000 C 77.917 35.000,77.833 34.917,77.833 34.583 C 77.833 34.250,77.750 34.167,77.417 34.167 C 77.083 34.167,77.000 34.083,77.000 33.750 C 77.000 33.417,76.917 33.333,76.583 33.333 C 76.250 33.333,76.167 33.250,76.167 32.917 C 76.167 32.583,76.083 32.500,75.750 32.500 C 75.417 32.500,75.333 32.417,75.333 32.083 C 75.333 31.750,75.250 31.667,74.917 31.667 C 74.587 31.667,74.500 31.583,74.500 31.262 C 74.500 30.968,74.396 30.842,74.125 30.803 C 73.890 30.770,73.731 30.616,73.699 30.391 C 73.668 30.172,73.488 29.991,73.240 29.929 C 72.982 29.864,72.833 29.708,72.833 29.500 C 72.833 29.290,72.684 29.136,72.417 29.068 C 72.158 29.003,72.000 28.846,72.000 28.652 C 72.000 28.458,71.842 28.300,71.583 28.235 C 71.324 28.170,71.167 28.012,71.167 27.818 C 71.167 27.628,71.011 27.467,70.766 27.406 C 70.545 27.350,70.326 27.156,70.278 26.974 C 70.230 26.791,70.042 26.603,69.860 26.555 C 69.677 26.508,69.483 26.288,69.428 26.068 C 69.366 25.823,69.206 25.667,69.015 25.667 C 68.821 25.667,68.663 25.509,68.598 25.250 C 68.531 24.983,68.376 24.833,68.167 24.833 C 67.957 24.833,67.802 24.684,67.735 24.417 C 67.670 24.158,67.512 24.000,67.318 24.000 C 67.126 24.000,66.967 23.843,66.904 23.593 C 66.842 23.345,66.661 23.166,66.443 23.135 C 66.221 23.103,66.063 22.944,66.031 22.719 C 65.999 22.491,65.842 22.334,65.615 22.302 C 65.388 22.270,65.230 22.112,65.198 21.885 C 65.166 21.658,65.009 21.501,64.781 21.469 C 64.551 21.436,64.397 21.279,64.363 21.042 C 64.325 20.770,64.198 20.667,63.905 20.667 C 63.584 20.667,63.500 20.580,63.500 20.250 C 63.500 19.917,63.417 19.833,63.083 19.833 C 62.750 19.833,62.667 19.750,62.667 19.417 C 62.667 19.083,62.583 19.000,62.250 19.000 C 61.917 19.000,61.833 18.917,61.833 18.583 C 61.833 18.250,61.750 18.167,61.417 18.167 C 61.083 18.167,61.000 18.083,61.000 17.750 C 61.000 17.417,60.917 17.333,60.583 17.333 C 60.250 17.333,60.167 17.250,60.167 16.917 C 60.167 16.583,60.083 16.500,59.750 16.500 C 59.417 16.500,59.333 16.417,59.333 16.083 C 59.333 15.758,59.248 15.667,58.943 15.667 C 58.689 15.667,58.487 15.522,58.364 15.250 C 58.141 14.761,56.976 14.654,56.407 15.070 M83.833 16.917 C 83.833 17.324,83.806 17.333,82.583 17.333 C 81.361 17.333,81.333 17.343,81.333 17.750 C 81.333 18.139,81.278 18.167,80.500 18.167 C 79.722 18.167,79.667 18.194,79.667 18.583 C 79.667 18.916,79.583 19.000,79.253 19.000 C 78.954 19.000,78.812 19.112,78.738 19.407 C 78.675 19.655,78.495 19.834,78.276 19.865 C 78.057 19.897,77.897 20.056,77.866 20.275 C 77.838 20.472,77.680 20.668,77.516 20.711 C 77.193 20.795,77.000 21.467,77.000 22.509 C 77.000 23.040,76.939 23.152,76.625 23.197 C 76.253 23.250,76.250 23.272,76.250 26.083 C 76.250 28.895,76.253 28.917,76.625 28.970 C 76.956 29.017,77.000 29.120,77.000 29.845 C 77.000 30.610,77.029 30.667,77.417 30.667 C 77.760 30.667,77.834 30.748,77.836 31.125 C 77.840 31.913,78.019 32.312,78.392 32.366 C 78.616 32.398,78.770 32.557,78.803 32.792 C 78.842 33.063,78.968 33.167,79.262 33.167 C 79.578 33.167,79.667 33.254,79.667 33.568 C 79.667 33.923,79.763 33.982,80.500 34.083 C 81.165 34.175,81.333 34.261,81.333 34.512 C 81.333 34.978,81.707 35.016,85.833 34.964 C 89.579 34.917,89.583 34.916,89.637 34.542 C 89.680 34.238,89.796 34.167,90.248 34.167 C 91.060 34.167,91.333 34.015,91.333 33.566 C 91.333 33.251,91.422 33.167,91.750 33.167 C 92.083 33.167,92.167 33.083,92.167 32.750 C 92.167 32.417,92.250 32.333,92.583 32.333 C 92.917 32.333,93.000 32.250,93.000 31.917 C 93.000 31.583,93.083 31.500,93.417 31.500 C 93.806 31.500,93.833 31.444,93.833 30.667 C 93.833 29.889,93.861 29.833,94.250 29.833 L 94.667 29.833 94.667 26.083 L 94.667 22.333 94.250 22.333 C 93.861 22.333,93.833 22.278,93.833 21.500 C 93.833 20.722,93.806 20.667,93.417 20.667 C 93.083 20.667,93.000 20.583,93.000 20.250 C 93.000 19.917,92.917 19.833,92.583 19.833 C 92.250 19.833,92.167 19.750,92.167 19.417 C 92.167 19.083,92.083 19.000,91.750 19.000 C 91.417 19.000,91.333 18.917,91.333 18.583 C 91.333 18.253,91.249 18.167,90.928 18.167 C 90.635 18.167,90.508 18.063,90.470 17.792 C 90.419 17.436,90.333 17.414,88.792 17.369 C 87.189 17.322,87.167 17.316,87.167 16.911 C 87.167 16.502,87.160 16.500,85.500 16.500 L 83.833 16.500 83.833 16.917 " stroke="none" fill="#fc342c" fill-rule="evenodd"></path><path id="path2" d="" stroke="none" fill="#fc100c8" fill-rule="evenodd"></path><path id="path3" d="" stroke="none" fill="#fc100c8" fill-rule="evenodd"></path><path id="path4" d="" stroke="none" fill="#fc100c8" fill-rule="evenodd"></path></g></svg>